<?xml version="1.0" standalone="no"?>
<!DOCTYPE svg PUBLIC "-//W3C//DTD SVG 20010904//EN" "http://www.w3.org/TR/2001/REC-SVG-20010904/DTD/svg10.dtd">
<svg version="1.0" xmlns="http://www.w3.org/2000/svg"
    width="2126.000000pt" height="1535.000000pt" viewBox="0 0 2126.000000 1200.000000"
    preserveAspectRatio="xMidYMid meet">

    <g transform="translate(0.000000,1535.000000) scale(0.100000,-0.100000)"
        fill="#252364" stroke="none">
        <path
            d="M14475 14750 c-4 -6 -58 -10 -131 -10 -68 0 -124 -4 -124 -9 0 -4
-36 -12 -80 -15 -44 -4 -80 -12 -80 -17 0 -5 -27 -9 -61 -9 -35 0 -58 -4 -54
-9 3 -6 -21 -13 -55 -17 -33 -4 -60 -11 -60 -15 0 -5 -17 -9 -37 -9 -21 0 -47
-7 -57 -15 -11 -8 -33 -15 -49 -15 -16 0 -26 -4 -22 -10 4 -6 -7 -10 -27 -10
-18 0 -42 -7 -52 -15 -11 -8 -30 -15 -43 -15 -13 0 -23 -4 -23 -10 0 -5 -10
-10 -22 -10 -13 0 -32 -7 -42 -15 -11 -8 -28 -15 -38 -15 -10 0 -18 -4 -18
-10 0 -5 -8 -10 -19 -10 -10 0 -24 -7 -31 -15 -7 -8 -23 -15 -36 -15 -13 0
-24 -4 -24 -10 0 -5 -11 -12 -25 -16 -14 -3 -25 -10 -25 -15 0 -5 -8 -9 -18
-9 -9 0 -29 -11 -44 -25 -15 -14 -32 -25 -38 -25 -6 0 -18 -6 -25 -12 -34 -31
-45 -38 -56 -38 -6 0 -22 -11 -35 -25 -13 -14 -32 -25 -44 -25 -11 0 -20 -7
-20 -15 0 -8 -7 -15 -16 -15 -8 0 -12 -4 -9 -10 3 -5 -1 -10 -9 -10 -9 0 -16
-4 -16 -10 0 -5 -11 -12 -25 -16 -14 -3 -22 -10 -19 -15 3 -5 1 -9 -5 -9 -16
0 -231 -219 -231 -235 0 -9 -4 -14 -9 -10 -5 3 -12 -4 -16 -15 -3 -11 -11 -20
-16 -20 -5 0 -9 -5 -9 -11 0 -6 -6 -17 -12 -24 -24 -26 -33 -40 -53 -77 -11
-21 -23 -38 -27 -38 -5 0 -8 -11 -8 -24 0 -13 -7 -26 -15 -30 -8 -3 -15 -17
-15 -31 0 -14 -4 -25 -10 -25 -5 0 -10 -11 -10 -24 0 -14 -7 -31 -15 -40 -8
-8 -15 -31 -15 -50 0 -20 -4 -36 -9 -36 -4 0 -11 -21 -14 -47 -3 -26 -10 -49
-16 -51 -16 -5 -15 -419 0 -424 6 -2 14 -27 17 -56 2 -29 8 -52 13 -52 5 0 9
-16 9 -36 0 -19 7 -42 15 -50 8 -9 15 -24 15 -35 0 -11 5 -17 10 -14 6 3 10
-5 10 -19 0 -13 7 -32 16 -40 8 -9 16 -25 17 -36 1 -11 5 -20 9 -20 4 0 8 -7
8 -15 0 -8 4 -15 10 -15 5 0 12 -11 16 -25 3 -14 10 -25 15 -25 5 0 9 -7 9
-15 0 -8 7 -15 15 -15 8 0 15 -7 15 -15 0 -9 11 -26 25 -39 14 -13 25 -26 25
-30 0 -4 33 -41 74 -81 40 -41 71 -77 68 -80 -3 -3 0 -5 7 -5 6 0 22 -11 35
-25 13 -14 28 -25 35 -25 6 0 11 -5 11 -11 0 -14 25 -39 39 -39 6 0 11 -7 11
-16 0 -8 5 -12 10 -9 6 3 13 -1 16 -9 3 -9 11 -16 18 -16 6 0 23 -11 38 -25
15 -14 32 -25 38 -25 5 0 10 -4 10 -10 0 -5 11 -12 25 -16 14 -3 25 -10 25
-14 0 -5 9 -12 20 -15 11 -4 18 -11 15 -16 -4 -5 3 -9 14 -9 12 0 21 -4 21 -9
0 -5 11 -12 25 -15 14 -4 25 -11 25 -16 0 -6 7 -10 15 -10 8 0 15 -4 15 -9 0
-5 11 -12 25 -15 14 -4 25 -11 25 -16 0 -6 8 -10 19 -10 10 0 24 -7 31 -15 7
-8 19 -15 26 -15 8 0 14 -4 14 -10 0 -5 9 -10 20 -10 11 0 20 -4 20 -10 0 -5
11 -12 25 -16 14 -3 25 -10 25 -15 0 -5 9 -9 21 -9 11 0 27 -7 35 -15 9 -8 27
-15 40 -15 14 0 22 -4 19 -10 -3 -5 2 -10 12 -10 11 0 28 -7 39 -15 10 -8 29
-15 42 -15 13 0 21 -4 18 -9 -4 -5 7 -12 24 -16 16 -4 30 -11 30 -16 0 -5 11
-9 25 -9 14 0 25 -4 25 -10 0 -5 11 -10 24 -10 14 0 31 -7 40 -15 8 -8 26 -15
40 -15 14 0 26 -4 26 -8 0 -11 72 -42 98 -42 12 0 22 -4 22 -9 0 -5 14 -12 30
-16 17 -4 30 -11 30 -16 0 -5 14 -9 31 -9 17 0 37 -7 45 -15 9 -8 24 -15 35
-15 10 0 19 -4 19 -10 0 -5 12 -10 28 -10 15 0 36 -7 46 -15 11 -8 30 -15 43
-15 13 0 23 -4 23 -10 0 -5 11 -10 24 -10 13 0 29 -7 36 -15 7 -8 25 -15 41
-15 16 0 29 -4 29 -10 0 -5 10 -10 23 -10 13 0 32 -7 43 -15 10 -8 29 -15 41
-15 12 0 24 -4 27 -9 3 -5 22 -12 41 -15 19 -4 35 -11 35 -16 0 -6 16 -10 35
-10 19 0 35 -4 35 -10 0 -5 11 -10 24 -10 14 0 31 -7 40 -15 8 -8 26 -15 40
-15 14 0 27 -4 30 -9 3 -5 22 -12 41 -15 19 -4 35 -11 35 -16 0 -6 14 -10 31
-10 17 0 37 -7 45 -15 9 -8 26 -15 40 -15 13 0 24 -4 24 -10 0 -5 13 -10 29
-10 16 0 34 -7 41 -15 7 -8 25 -15 41 -15 16 0 29 -4 29 -10 0 -5 11 -10 24
-10 14 0 31 -7 40 -15 8 -8 24 -15 35 -15 12 0 21 -4 21 -10 0 -5 11 -10 24
-10 14 0 31 -7 40 -15 8 -8 26 -15 40 -15 14 0 26 -4 26 -10 0 -5 11 -10 24
-10 13 0 26 -7 30 -15 3 -9 18 -15 36 -15 16 0 30 -4 30 -9 0 -5 14 -12 30
-16 17 -4 30 -11 30 -16 0 -5 11 -9 25 -9 14 0 25 -4 25 -10 0 -5 11 -12 25
-16 14 -3 25 -10 25 -15 0 -5 11 -9 25 -9 14 0 25 -4 25 -10 0 -5 11 -12 25
-16 14 -3 25 -10 25 -15 0 -5 11 -9 25 -9 16 0 25 -6 25 -15 0 -8 8 -15 19
-15 10 0 30 -11 45 -25 15 -14 34 -25 42 -25 7 0 14 -4 14 -10 0 -5 7 -10 15
-10 8 0 15 -7 15 -15 0 -8 9 -15 19 -15 10 0 21 -7 25 -15 3 -8 11 -15 18 -15
8 0 20 -9 28 -20 8 -11 20 -20 27 -20 7 0 13 -7 13 -15 0 -8 5 -15 11 -15 14
0 39 -25 39 -39 0 -6 5 -11 11 -11 11 0 39 -25 39 -35 0 -3 11 -16 25 -29 14
-13 25 -30 25 -37 0 -8 12 -25 25 -38 14 -13 25 -31 25 -40 0 -9 7 -25 15 -35
8 -11 15 -28 15 -38 0 -10 3 -18 8 -18 12 0 35 -120 35 -185 0 -65 -23 -185
-35 -185 -5 0 -8 -11 -8 -25 0 -14 -4 -25 -10 -25 -5 0 -12 -11 -16 -25 -3
-14 -10 -25 -14 -25 -4 0 -11 -11 -14 -25 -4 -14 -11 -25 -16 -25 -6 0 -10 -7
-10 -16 0 -8 -4 -12 -10 -9 -5 3 -10 -1 -10 -9 0 -9 -7 -16 -15 -16 -8 0 -15
-5 -15 -11 0 -14 -25 -39 -39 -39 -6 0 -11 -5 -11 -11 0 -14 -25 -39 -39 -39
-6 0 -11 -7 -11 -15 0 -8 -7 -15 -15 -15 -8 0 -15 -4 -15 -8 0 -5 -16 -17 -35
-28 -19 -10 -35 -22 -35 -26 0 -5 -7 -8 -15 -8 -8 0 -15 -4 -15 -10 0 -5 -11
-12 -25 -16 -14 -3 -25 -10 -25 -14 0 -4 -11 -11 -25 -14 -14 -4 -25 -11 -25
-16 0 -6 -11 -10 -24 -10 -13 0 -26 -3 -28 -7 -5 -13 -78 -43 -103 -43 -14 0
-25 -4 -25 -10 0 -5 -16 -12 -35 -16 -19 -3 -35 -10 -35 -15 0 -5 -22 -9 -50
-9 -27 0 -50 -4 -50 -9 0 -5 -29 -13 -65 -16 -36 -4 -65 -11 -65 -16 0 -5 -47
-9 -104 -9 -57 0 -106 -4 -108 -9 -3 -9 -209 -16 -361 -13 -56 1 -86 6 -82 12
4 6 -33 10 -104 10 -61 0 -111 4 -111 9 0 4 -33 11 -72 15 -40 4 -74 11 -76
16 -2 6 -25 10 -52 10 -26 0 -61 7 -76 15 -16 8 -39 15 -51 15 -12 0 -25 5
-28 10 -3 6 -21 10 -39 10 -17 0 -37 5 -42 10 -6 6 -24 13 -40 16 -16 3 -33 9
-38 15 -6 5 -21 9 -34 9 -13 0 -30 7 -38 15 -9 8 -26 15 -40 15 -13 0 -24 5
-24 10 0 6 -11 10 -25 10 -14 0 -28 7 -31 15 -4 8 -17 15 -30 15 -13 0 -24 5
-24 10 0 6 -11 10 -25 10 -14 0 -25 4 -25 10 0 5 -11 12 -25 16 -14 3 -25 10
-25 15 0 5 -11 9 -25 9 -14 0 -28 7 -31 15 -4 8 -15 15 -25 15 -10 0 -19 5
-19 10 0 6 -6 10 -14 10 -8 0 -21 6 -29 14 -8 8 -22 16 -33 18 -10 2 -28 13
-40 26 -12 12 -31 22 -43 22 -12 0 -21 6 -21 15 0 8 -7 15 -15 15 -8 0 -15 5
-15 10 0 6 -8 10 -18 10 -10 0 -25 8 -33 18 -27 29 -57 51 -63 45 -3 -4 -6 -1
-6 5 0 7 -5 12 -11 12 -7 0 -26 16 -45 35 -18 19 -37 35 -43 35 -15 0 -261
250 -261 265 0 3 -11 16 -25 29 -14 13 -25 26 -25 30 0 4 -6 14 -12 21 -30 33
-38 45 -38 55 0 5 -7 10 -15 10 -9 0 -15 10 -15 26 0 14 -4 23 -10 19 -5 -3
-10 1 -10 10 0 8 -7 18 -15 21 -8 4 -15 15 -15 25 0 10 -4 19 -9 19 -5 0 -11
8 -15 18 -5 17 -26 52 -36 62 -11 11 -40 73 -40 86 0 8 -4 14 -9 14 -5 0 -12
14 -16 30 -4 17 -11 30 -16 30 -5 0 -9 9 -9 21 0 11 -7 27 -15 35 -8 9 -15 26
-15 40 0 13 -4 24 -10 24 -5 0 -10 12 -10 26 0 14 -7 32 -15 40 -8 9 -15 26
-15 40 0 13 -4 24 -10 24 -5 0 -10 18 -10 40 0 22 -4 40 -9 40 -5 0 -13 9 -16
20 -6 18 -15 20 -106 20 l-99 0 0 -625 c0 -410 -3 -625 -10 -625 -7 0 -10
-170 -10 -490 0 -429 -2 -490 -15 -490 -8 0 -15 7 -15 15 0 8 -5 15 -11 15
-11 0 -39 25 -39 35 0 4 -12 20 -27 35 -39 41 -53 58 -53 66 0 3 -22 28 -50
55 -27 27 -50 54 -50 59 0 6 -11 21 -25 34 -14 13 -25 28 -25 35 0 6 -5 11
-11 11 -11 0 -39 24 -39 34 0 3 -12 19 -27 35 -40 43 -53 59 -53 66 0 4 -16
21 -35 39 -19 19 -35 38 -35 45 0 6 -7 11 -15 11 -8 0 -15 5 -15 11 0 6 -6 17
-12 24 -30 33 -38 45 -38 55 0 5 -5 10 -11 10 -11 0 -39 25 -39 35 0 4 -12 20
-27 35 -39 41 -53 58 -53 65 0 4 -16 21 -35 39 -19 19 -35 38 -35 45 0 6 -7
11 -15 11 -8 0 -15 5 -15 10 0 6 -11 23 -25 38 -14 15 -25 32 -25 39 0 7 -5
13 -11 13 -11 0 -39 25 -39 35 0 4 -18 24 -40 46 -22 22 -40 44 -40 50 0 6
-16 25 -35 43 -19 19 -35 38 -35 45 0 6 -7 11 -15 11 -8 0 -15 4 -15 10 0 11
-30 48 -72 92 -16 15 -28 30 -28 33 0 4 -18 24 -40 46 -22 22 -40 44 -40 50 0
14 -26 39 -39 39 -6 0 -11 7 -11 15 0 8 -4 15 -10 15 -5 0 -10 7 -10 15 0 8
-5 15 -11 15 -11 0 -39 25 -39 35 0 7 -14 24 -52 65 -16 15 -28 31 -28 35 0 4
-18 24 -40 46 -22 22 -40 44 -40 48 0 5 -27 36 -60 70 -33 34 -60 64 -60 67 0
6 -16 25 -52 64 -16 15 -28 33 -28 39 0 6 -7 11 -15 11 -8 0 -15 3 -15 8 0 4
-16 25 -35 47 -19 22 -35 43 -35 48 0 4 -22 30 -50 57 -27 27 -50 52 -50 55 0
7 -15 25 -52 65 -16 15 -28 31 -28 34 0 4 -22 29 -50 56 -27 27 -50 57 -50 65
0 8 -7 15 -15 15 -8 0 -15 5 -15 11 0 6 -16 25 -35 43 -19 19 -35 36 -35 40 0
6 -36 49 -67 82 -7 7 -13 17 -13 23 0 6 -7 11 -16 11 -8 0 -12 5 -9 10 3 6 -1
10 -9 10 -9 0 -16 5 -16 10 0 6 -11 23 -25 38 -14 15 -25 30 -25 34 0 5 -22
30 -50 57 -27 27 -50 52 -50 56 0 3 -12 20 -27 35 -39 41 -53 58 -53 65 0 10
-28 35 -39 35 -6 0 -11 5 -11 11 0 7 -11 22 -25 35 -14 13 -25 30 -25 39 0 9
-5 13 -10 10 -6 -3 -13 2 -17 12 -4 10 -22 32 -40 49 -18 17 -33 34 -33 38 0
4 -12 21 -27 37 -16 16 -38 41 -50 54 -13 13 -23 29 -23 35 0 5 -7 10 -15 10
-8 0 -15 5 -15 11 0 7 -16 26 -34 44 -19 18 -33 35 -30 37 2 3 -10 20 -28 39
-18 19 -32 37 -30 42 1 4 -5 7 -13 7 -8 0 -15 5 -15 11 0 14 -25 39 -39 39 -6
0 -11 7 -11 15 0 8 -11 25 -25 39 -14 14 -25 30 -25 36 0 5 -7 10 -15 10 -8 0
-15 6 -15 13 0 7 -11 21 -25 31 -14 10 -25 23 -25 28 0 11 -12 26 -62 78 -21
21 -38 41 -38 45 0 10 -28 35 -39 35 -6 0 -11 5 -11 11 0 39 3 39 -789 39
l-761 0 0 -75 0 -75 140 0 c77 0 140 -4 140 -9 0 -4 21 -11 47 -14 26 -3 49
-10 51 -16 2 -6 21 -11 43 -11 21 0 39 -4 39 -9 0 -5 16 -12 35 -15 19 -4 35
-11 35 -16 0 -6 9 -10 19 -10 21 0 84 -30 89 -42 2 -5 12 -8 23 -8 11 0 22 -7
25 -15 4 -8 15 -15 25 -15 10 0 19 -4 19 -10 0 -5 7 -10 15 -10 8 0 15 -7 15
-15 0 -8 5 -15 11 -15 7 0 22 -11 35 -25 13 -14 30 -25 39 -25 8 0 15 -5 15
-11 0 -11 24 -39 34 -39 11 0 46 -40 46 -52 0 -6 3 -9 6 -5 3 3 21 -13 38 -37
18 -23 50 -59 72 -80 l39 -38 3 -643 2 -644 -27 -25 c-15 -14 -36 -26 -46 -26
-10 0 -16 -4 -13 -9 4 -5 -7 -12 -24 -16 -16 -4 -32 -11 -35 -16 -4 -5 -20 -9
-36 -9 -17 0 -28 -4 -25 -9 3 -5 -14 -12 -39 -15 -25 -4 -45 -11 -45 -17 0 -5
-59 -9 -140 -9 -79 0 -140 4 -140 9 0 5 -29 13 -65 16 -36 4 -65 11 -65 16 0
5 -20 9 -45 9 -25 0 -45 4 -45 9 0 6 -20 13 -45 17 -25 3 -42 10 -39 15 3 5
-12 9 -33 9 -21 1 -49 7 -63 15 -14 8 -37 14 -52 15 -16 0 -28 5 -28 10 0 6
-17 10 -37 10 -21 0 -47 7 -57 15 -11 8 -35 15 -53 15 -18 0 -33 5 -33 10 0 6
-15 10 -32 10 -18 0 -46 7 -62 15 -15 8 -46 15 -67 15 -22 0 -39 4 -39 9 0 4
-28 11 -62 15 -35 3 -64 11 -66 16 -2 6 -35 10 -73 10 -38 0 -69 4 -69 9 0 5
-38 12 -85 16 -47 4 -85 11 -85 15 0 12 -237 21 -530 21 -302 0 -550 -10 -550
-21 0 -5 -40 -12 -90 -16 -49 -3 -90 -10 -90 -15 0 -5 -35 -9 -77 -9 -46 0
-73 -4 -65 -9 14 -9 -38 -21 -90 -21 -16 0 -28 -4 -28 -10 0 -5 -21 -10 -46
-10 -27 0 -51 -6 -60 -15 -9 -8 -33 -15 -55 -15 -21 0 -39 -4 -39 -10 0 -5
-13 -10 -29 -10 -16 0 -36 -7 -45 -15 -8 -8 -28 -15 -45 -15 -17 0 -31 -4 -31
-10 0 -5 -10 -10 -22 -10 -13 0 -32 -7 -42 -15 -11 -8 -30 -15 -43 -15 -13 0
-23 -4 -23 -9 0 -5 -11 -12 -25 -15 -14 -4 -25 -11 -25 -16 0 -6 -13 -10 -30
-10 -16 0 -30 -4 -30 -10 0 -5 -9 -10 -19 -10 -11 0 -26 -7 -35 -15 -8 -8 -22
-15 -30 -15 -9 0 -16 -4 -16 -10 0 -5 -11 -12 -25 -16 -14 -3 -25 -10 -25 -15
0 -5 -11 -9 -25 -9 -14 0 -25 -4 -25 -10 0 -5 -11 -12 -25 -16 -14 -3 -25 -10
-25 -15 0 -5 -6 -9 -13 -9 -7 0 -24 -11 -39 -25 -15 -14 -34 -25 -43 -25 -9 0
-18 -7 -21 -15 -4 -8 -12 -15 -20 -15 -8 0 -14 -4 -14 -10 0 -5 -6 -10 -13
-10 -7 0 -24 -11 -39 -25 -15 -14 -32 -25 -38 -25 -5 0 -10 -7 -10 -15 0 -8
-7 -15 -15 -15 -9 0 -26 -11 -39 -25 -13 -14 -27 -25 -31 -25 -8 0 -245 -237
-245 -246 0 -3 -6 -12 -12 -19 -30 -33 -38 -45 -38 -54 0 -5 -4 -11 -8 -13
-13 -5 -122 -186 -122 -202 0 -8 -4 -18 -10 -21 -5 -3 -10 -14 -10 -24 0 -10
-7 -24 -15 -31 -8 -7 -15 -28 -15 -46 0 -19 -4 -34 -9 -34 -5 0 -12 -22 -16
-50 -4 -27 -11 -50 -16 -50 -5 0 -9 -45 -9 -100 0 -60 -4 -100 -10 -100 -6 0
-10 -27 -10 -60 0 -33 4 -60 10 -60 6 0 10 -38 10 -95 0 -54 4 -95 10 -95 5 0
12 -22 16 -50 4 -27 10 -50 15 -50 5 0 9 -16 9 -35 0 -19 4 -35 10 -35 5 0 12
-16 16 -35 3 -19 10 -35 15 -35 5 0 9 -8 9 -19 0 -10 7 -24 15 -31 8 -7 15
-21 15 -31 0 -11 3 -19 8 -19 7 0 25 -30 38 -62 3 -10 10 -18 15 -18 5 0 9 -7
9 -15 0 -8 4 -15 9 -15 5 0 13 -10 17 -22 4 -12 23 -39 43 -60 43 -45 61 -65
61 -72 0 -11 140 -145 169 -162 17 -10 31 -22 31 -26 0 -4 7 -8 15 -8 8 0 15
-7 15 -15 0 -8 5 -15 11 -15 6 0 17 -6 24 -12 33 -30 45 -38 55 -38 5 0 10 -4
10 -9 0 -5 11 -12 25 -15 14 -4 25 -11 25 -16 0 -6 7 -10 15 -10 8 0 15 -4 15
-10 0 -5 11 -12 25 -16 14 -3 25 -10 25 -15 0 -5 5 -9 11 -9 6 0 17 -6 24 -12
36 -32 45 -38 64 -38 10 0 21 -7 25 -15 3 -8 15 -15 26 -15 11 0 20 -4 20 -10
0 -5 6 -10 14 -10 7 0 19 -7 26 -15 7 -8 21 -15 31 -15 11 0 19 -4 19 -10 0
-5 9 -10 19 -10 10 0 21 -7 25 -15 3 -8 17 -15 31 -15 14 0 25 -4 25 -10 0 -5
11 -12 25 -16 14 -3 25 -10 25 -15 0 -5 9 -9 21 -9 11 0 27 -7 36 -15 8 -8 18
-13 23 -10 4 3 13 -2 20 -10 7 -8 23 -15 35 -15 12 0 28 -7 35 -15 7 -8 21
-15 31 -15 11 0 19 -4 19 -10 0 -5 10 -10 23 -10 12 0 31 -7 41 -15 11 -8 28
-15 38 -15 10 0 18 -4 18 -10 0 -5 9 -10 19 -10 11 0 26 -7 35 -15 8 -8 24
-15 35 -15 12 0 21 -4 21 -10 0 -5 10 -10 23 -10 13 0 32 -7 43 -15 10 -8 29
-15 42 -15 12 0 22 -4 22 -10 0 -5 11 -10 24 -10 14 0 31 -7 40 -15 8 -8 26
-15 40 -15 14 0 26 -4 26 -9 0 -5 16 -12 35 -15 19 -4 35 -11 35 -16 0 -6 16
-10 36 -10 19 0 33 -4 30 -9 -3 -5 10 -12 29 -15 19 -4 35 -11 35 -16 0 -6 15
-10 33 -10 17 0 41 -7 51 -15 11 -8 30 -15 44 -15 13 0 20 -4 17 -10 -3 -6 5
-10 18 -10 14 0 38 -7 53 -15 16 -8 37 -15 47 -15 9 0 17 -4 17 -10 0 -5 15
-10 34 -10 18 0 39 -7 46 -15 7 -8 25 -15 41 -15 16 0 29 -4 29 -9 0 -5 18
-11 40 -15 22 -3 40 -11 40 -16 0 -6 14 -10 30 -10 17 0 30 -4 30 -9 0 -5 16
-12 35 -15 19 -4 35 -11 35 -16 0 -6 15 -10 34 -10 19 0 36 -4 38 -10 2 -5 13
-11 26 -13 12 -2 28 -9 34 -15 7 -7 25 -12 40 -12 15 0 28 -4 28 -10 0 -5 11
-10 24 -10 14 0 31 -7 40 -15 8 -8 26 -15 40 -15 14 0 27 -4 31 -9 3 -5 19
-12 35 -16 17 -4 30 -11 30 -16 0 -5 10 -9 23 -9 13 0 32 -7 43 -15 10 -8 29
-15 42 -15 12 0 22 -4 22 -10 0 -5 9 -10 21 -10 11 0 27 -7 35 -15 9 -8 29
-15 45 -15 18 0 28 -4 24 -10 -3 -6 4 -10 18 -10 14 0 30 -7 37 -15 7 -8 21
-15 31 -15 11 0 19 -4 19 -10 0 -5 11 -10 24 -10 14 0 31 -7 40 -15 8 -8 19
-15 25 -15 6 0 11 -4 11 -10 0 -5 11 -10 25 -10 16 0 25 -6 25 -15 0 -9 9 -15
25 -15 14 0 25 -4 25 -10 0 -5 11 -12 25 -16 14 -3 25 -10 25 -15 0 -5 7 -9
15 -9 8 0 15 -3 15 -8 0 -4 16 -16 35 -26 19 -11 35 -22 35 -26 0 -5 11 -11
25 -14 14 -4 25 -11 25 -16 0 -6 7 -10 15 -10 8 0 15 -7 15 -15 0 -8 5 -15 10
-15 6 0 28 -17 49 -37 22 -21 51 -47 65 -57 14 -10 26 -27 26 -37 0 -11 5 -19
11 -19 13 0 39 -25 39 -38 0 -5 7 -15 15 -22 8 -7 15 -21 15 -31 0 -11 5 -19
10 -19 6 0 10 -11 10 -24 0 -14 7 -31 15 -40 21 -21 21 -262 0 -290 -8 -11
-15 -30 -15 -43 0 -13 -4 -23 -9 -23 -5 0 -12 -11 -15 -25 -4 -14 -11 -25 -16
-25 -6 0 -10 -7 -10 -15 0 -8 -4 -15 -10 -15 -5 0 -10 -6 -10 -14 0 -16 -113
-135 -132 -139 -7 -1 -22 -12 -34 -24 -12 -13 -26 -23 -33 -23 -6 0 -11 -4
-11 -10 0 -5 -11 -12 -25 -16 -14 -3 -23 -10 -20 -14 3 -4 -6 -11 -20 -14 -14
-4 -25 -11 -25 -16 0 -6 -9 -10 -19 -10 -11 0 -21 -3 -23 -7 -5 -12 -76 -43
-98 -43 -11 0 -20 -4 -20 -10 0 -5 -18 -13 -40 -16 -22 -4 -37 -10 -34 -15 3
-5 -16 -9 -41 -9 -27 0 -44 -4 -40 -9 3 -6 -21 -13 -55 -17 -33 -4 -60 -11
-60 -15 0 -5 -38 -9 -84 -9 -59 0 -86 -4 -88 -12 -4 -10 -65 -13 -261 -13
-191 0 -259 3 -269 13 -8 8 -43 12 -101 12 -48 0 -86 4 -83 9 3 5 -20 11 -51
13 -31 3 -59 10 -61 16 -2 7 -26 12 -58 12 -30 0 -54 4 -54 9 0 5 -20 12 -45
15 -25 4 -45 11 -45 17 0 5 -15 9 -34 9 -19 0 -37 4 -41 9 -3 5 -19 12 -35 16
-17 4 -30 11 -30 16 0 5 -16 9 -35 9 -19 0 -35 4 -35 10 0 5 -11 12 -25 16
-14 3 -25 10 -25 15 0 5 -11 9 -25 9 -14 0 -25 4 -25 9 0 5 -10 13 -22 16 -37
11 -87 35 -93 45 -3 6 -15 10 -26 10 -10 0 -19 5 -19 10 0 6 -9 10 -19 10 -10
0 -21 7 -25 15 -3 8 -15 15 -26 15 -11 0 -20 5 -20 10 0 6 -7 10 -15 10 -8 0
-15 7 -15 15 0 9 -9 15 -21 15 -11 0 -27 6 -34 13 -34 30 -45 37 -56 37 -6 0
-22 11 -35 25 -13 14 -30 25 -39 25 -8 0 -15 7 -15 15 0 8 -5 15 -11 15 -7 0
-27 16 -46 35 -19 19 -38 35 -44 35 -5 0 -38 29 -74 65 -35 36 -69 65 -75 65
-6 0 -9 4 -6 9 3 4 -8 19 -24 31 -17 13 -30 31 -30 41 0 11 -6 19 -13 19 -8 0
-20 11 -27 25 -7 14 -17 25 -22 25 -4 0 -8 6 -8 14 0 8 -7 16 -15 20 -8 3 -15
15 -15 26 0 11 -7 20 -15 20 -8 0 -15 7 -15 15 0 8 -4 15 -10 15 -5 0 -10 7
-10 15 0 8 -9 24 -20 35 -12 12 -18 25 -15 30 4 6 1 10 -4 10 -6 0 -11 7 -11
15 0 8 -4 15 -10 15 -5 0 -12 11 -16 25 -3 14 -10 25 -15 25 -5 0 -9 11 -9 24
0 13 -7 29 -15 36 -8 7 -15 23 -15 36 0 13 -4 24 -10 24 -5 0 -10 11 -10 24 0
13 -7 29 -15 36 -8 7 -15 28 -15 46 0 19 -4 34 -10 34 -5 0 -10 10 -10 23 0
12 -7 35 -15 51 -8 15 -15 37 -15 47 0 17 -9 19 -90 20 -49 1 -100 2 -112 2
l-23 1 -3 -212 c-1 -118 3 -279 9 -360 6 -81 13 -293 15 -472 3 -179 9 -338
14 -354 6 -16 10 -119 10 -230 0 -111 3 -211 6 -223 6 -22 12 -23 90 -23 66 0
84 3 84 14 0 8 8 29 17 48 31 61 33 68 33 87 0 10 7 24 15 31 8 7 15 21 15 31
0 11 3 19 8 19 4 0 16 16 26 35 11 20 30 38 43 41 13 4 23 10 23 15 0 5 5 9
11 9 6 0 17 7 25 15 9 8 31 15 50 15 21 0 33 4 29 10 -4 6 32 10 99 10 58 0
106 -4 106 -9 0 -4 26 -11 57 -14 32 -3 59 -11 61 -17 2 -5 24 -10 48 -10 24
0 44 -4 44 -9 0 -5 23 -12 50 -16 28 -4 50 -11 50 -16 0 -5 18 -9 40 -9 22 0
40 -4 40 -10 0 -5 16 -12 35 -16 19 -3 35 -10 35 -15 0 -5 18 -9 40 -9 22 0
40 -4 40 -10 0 -5 18 -13 40 -16 22 -4 40 -10 40 -15 0 -5 15 -9 33 -9 17 -1
43 -7 57 -15 14 -8 40 -14 58 -15 17 0 32 -4 32 -9 0 -4 21 -11 47 -14 26 -3
49 -10 51 -16 2 -6 26 -11 53 -11 27 0 49 -4 49 -9 0 -4 28 -11 61 -14 34 -3
66 -10 72 -16 6 -6 48 -11 95 -11 53 0 81 -4 77 -10 -4 -6 13 -10 43 -10 94 0
231 -13 226 -21 -3 -5 119 -9 271 -9 161 0 274 4 271 9 -3 5 54 12 129 16 74
4 135 11 135 16 0 5 38 9 84 9 55 0 86 4 88 12 2 6 30 13 61 16 31 2 57 8 57
13 0 5 17 9 39 9 21 0 52 7 67 15 16 8 41 15 57 15 15 0 27 5 27 10 0 6 15 10
33 10 18 0 42 7 53 15 10 8 29 15 42 15 12 0 22 5 22 10 0 6 10 10 23 10 13 0
32 7 43 15 10 8 29 15 42 15 12 0 22 5 22 12 0 6 3 9 6 5 8 -8 64 13 64 24 0
5 11 9 25 9 14 0 25 4 25 9 0 5 11 12 25 15 14 4 25 11 25 16 0 6 11 10 25 10
14 0 25 4 25 9 0 5 11 12 25 15 14 4 25 11 25 16 0 6 7 10 15 10 8 0 15 4 15
10 0 5 11 12 25 16 14 3 25 10 25 14 0 4 11 11 25 14 14 4 25 11 25 16 0 6 7
10 15 10 8 0 15 5 15 10 0 6 6 10 13 10 7 0 24 11 39 25 15 14 31 25 36 25 6
0 12 7 16 15 3 8 15 15 26 15 12 0 19 4 16 8 -5 8 28 42 40 42 10 0 214 210
214 220 0 6 7 10 15 10 8 0 15 5 15 11 0 6 6 17 13 24 29 33 37 45 37 55 0 5
4 10 10 10 5 0 12 11 16 25 3 14 10 25 15 25 5 0 9 9 9 20 0 10 6 23 13 27 8
4 22 29 32 56 10 26 22 47 26 47 5 0 9 11 9 25 0 14 5 25 10 25 6 0 10 13 10
29 0 16 7 36 15 45 9 9 15 33 15 60 0 25 4 46 8 46 8 0 24 158 25 235 0 73
-17 245 -25 245 -4 0 -8 19 -8 43 0 23 -7 51 -15 61 -8 11 -15 30 -15 43 0 13
-4 23 -10 23 -5 0 -10 11 -10 25 0 14 -7 28 -15 31 -8 4 -15 17 -15 29 0 13
-5 25 -10 27 -6 2 -12 13 -13 26 0 12 -7 22 -14 22 -7 0 -13 9 -13 20 0 12
-11 31 -25 44 -14 13 -25 29 -25 35 0 7 -11 22 -25 35 -14 13 -25 26 -25 30 0
8 -16 28 -52 67 -16 15 -28 31 -28 34 0 5 -110 115 -116 115 -4 0 -48 39 -89
78 -13 12 -29 22 -35 22 -5 0 -10 6 -10 14 0 7 -8 17 -17 20 -33 12 -63 33
-56 39 3 4 -1 7 -10 7 -9 0 -17 4 -17 9 0 5 -11 12 -25 15 -14 4 -25 11 -25
16 0 6 -7 10 -15 10 -8 0 -15 4 -15 10 0 5 -11 12 -25 16 -14 3 -25 10 -25 15
0 5 -7 9 -15 9 -8 0 -15 4 -15 9 0 5 -10 13 -22 17 -13 4 -25 9 -28 13 -8 10
-44 31 -62 37 -10 4 -18 10 -18 15 0 5 -9 9 -19 9 -10 0 -21 7 -25 15 -3 8
-14 15 -25 15 -11 0 -21 3 -23 8 -5 12 -68 42 -89 42 -10 0 -19 4 -19 9 0 5
-11 12 -25 15 -14 4 -25 11 -25 16 0 6 -11 10 -25 10 -14 0 -25 5 -25 10 0 6
-9 10 -20 10 -11 0 -23 7 -26 15 -4 8 -19 15 -34 15 -16 0 -31 4 -35 9 -3 5
-19 12 -35 16 -17 4 -28 11 -24 16 3 5 -7 9 -21 9 -15 0 -33 7 -41 15 -9 8
-24 15 -34 15 -10 0 -22 5 -25 10 -3 5 -17 10 -31 10 -13 0 -24 5 -24 10 0 6
-5 10 -11 10 -12 0 -66 22 -112 46 -16 8 -38 14 -48 14 -11 0 -17 5 -14 10 4
6 -6 10 -24 10 -16 0 -36 7 -45 15 -8 8 -28 15 -44 15 -17 0 -32 4 -34 10 -1
5 -14 11 -27 13 -14 2 -27 9 -29 15 -2 7 -19 12 -38 12 -19 0 -34 4 -34 10 0
5 -16 12 -35 16 -19 3 -35 10 -35 15 0 5 -13 9 -30 9 -16 0 -30 5 -30 10 0 6
-11 10 -24 10 -14 0 -31 7 -40 15 -8 8 -31 15 -50 15 -20 0 -36 4 -36 10 0 5
-16 12 -35 16 -19 3 -35 10 -35 15 0 5 -13 9 -30 9 -16 0 -30 4 -30 10 0 5
-18 13 -40 16 -22 4 -40 10 -40 15 0 5 -14 9 -30 9 -17 0 -33 6 -36 13 -2 7
-19 14 -37 15 -17 2 -33 7 -35 12 -2 6 -14 10 -26 10 -12 0 -31 7 -42 15 -10
8 -29 15 -41 15 -13 0 -23 4 -23 9 0 5 -18 11 -40 15 -22 3 -40 11 -40 16 0 6
-11 10 -25 10 -14 0 -25 4 -25 9 0 5 -18 11 -40 15 -23 4 -38 11 -35 16 4 6
-7 10 -24 10 -17 0 -31 4 -31 9 0 5 -16 12 -35 15 -19 4 -35 11 -35 16 0 6
-10 10 -22 10 -13 0 -32 7 -42 15 -11 8 -28 15 -37 15 -10 0 -19 4 -21 9 -1 5
-14 11 -28 13 -14 1 -31 9 -38 16 -7 6 -20 12 -28 12 -8 0 -14 5 -14 10 0 6
-11 10 -24 10 -13 0 -26 7 -30 15 -3 8 -15 15 -26 15 -11 0 -20 5 -20 10 0 6
-6 10 -14 10 -8 0 -21 6 -28 13 -21 19 -56 37 -73 37 -8 0 -15 7 -15 15 0 9
-9 15 -21 15 -12 0 -32 11 -45 25 -13 14 -32 25 -44 25 -11 0 -19 3 -18 8 2 4
-1 9 -7 12 -5 3 -22 17 -38 32 -15 16 -32 28 -38 28 -15 0 -169 160 -169 177
0 7 -7 16 -15 19 -8 4 -15 12 -15 20 0 8 -3 14 -8 14 -8 0 -24 29 -66 123 -24
53 -26 68 -26 200 1 109 4 147 15 161 8 11 15 30 15 43 0 13 5 23 10 23 6 0
10 9 10 19 0 11 11 32 25 47 14 15 25 35 25 45 0 11 7 19 15 19 8 0 15 5 15
11 0 14 25 39 39 39 6 0 11 5 11 11 0 14 25 39 39 39 6 0 11 5 11 11 0 14 25
39 39 39 6 0 11 4 11 10 0 5 11 12 25 16 14 3 22 10 19 15 -3 5 2 9 11 9 8 0
18 7 21 15 4 8 13 15 21 15 8 0 21 6 28 13 35 31 45 37 60 37 8 0 15 4 15 9 0
5 13 12 30 16 16 4 30 11 30 16 0 5 11 9 25 9 14 0 25 4 25 9 0 5 16 12 35 15
19 4 35 11 35 16 0 6 18 10 39 10 22 0 41 5 43 11 2 6 25 13 51 16 26 3 47 10
47 14 0 5 21 9 48 9 26 0 65 7 87 15 22 8 75 14 118 15 44 0 77 4 77 10 0 13
456 14 464 1 3 -4 54 -11 113 -13 68 -3 108 -9 111 -16 2 -8 29 -12 73 -12 38
0 69 -4 69 -9 0 -5 23 -11 52 -13 29 -3 54 -11 56 -17 2 -6 24 -11 48 -11 24
0 44 -4 44 -9 0 -6 20 -13 45 -17 25 -3 45 -10 45 -15 0 -5 16 -9 35 -9 19 0
35 -4 35 -9 0 -5 13 -12 30 -16 16 -4 30 -11 30 -16 0 -5 16 -9 35 -9 19 0 35
-4 35 -9 0 -5 13 -12 30 -16 16 -4 30 -11 30 -16 0 -5 11 -9 24 -9 13 0 29 -7
36 -15 7 -8 17 -15 23 -15 18 0 87 -33 87 -42 0 -4 11 -8 25 -8 14 0 25 -4 25
-9 0 -5 8 -11 18 -15 18 -6 54 -27 62 -37 3 -4 15 -9 28 -13 12 -4 22 -12 22
-17 0 -5 9 -9 19 -9 10 0 22 -7 25 -16 3 -8 10 -12 16 -9 6 3 13 -1 16 -9 3
-9 13 -16 21 -16 9 0 26 -12 39 -26 14 -14 33 -26 44 -27 11 -1 20 -7 20 -14
0 -7 6 -13 14 -13 8 0 16 -3 18 -8 2 -4 23 -23 48 -42 25 -19 52 -42 61 -52 9
-10 21 -18 28 -18 6 0 11 -7 11 -15 0 -8 5 -15 11 -15 14 0 39 -25 39 -39 0
-6 5 -11 11 -11 14 0 39 -25 39 -39 0 -6 5 -11 11 -11 14 0 39 -25 39 -39 0
-6 7 -11 15 -11 8 0 15 -5 15 -10 0 -6 11 -23 25 -38 14 -15 25 -32 25 -39 0
-7 7 -13 15 -13 8 0 15 -5 15 -11 0 -7 8 -19 19 -28 10 -9 21 -26 25 -38 4
-13 12 -23 17 -23 5 0 9 -5 9 -11 0 -6 6 -17 13 -24 29 -34 37 -45 37 -55 0
-6 6 -18 13 -25 31 -35 37 -45 37 -60 0 -9 7 -18 15 -21 8 -4 15 -15 15 -25 0
-10 5 -19 10 -19 6 0 10 -8 10 -19 0 -10 7 -24 15 -31 8 -7 15 -23 15 -37 0
-13 4 -22 9 -19 5 3 12 -10 15 -29 4 -19 11 -35 16 -35 6 0 10 -11 10 -25 0
-14 5 -25 10 -25 6 0 10 -8 10 -18 0 -10 7 -27 15 -38 8 -10 15 -31 15 -46 0
-16 4 -28 9 -28 5 0 12 -18 16 -40 4 -22 11 -40 16 -40 5 0 9 -16 9 -35 l0
-35 109 0 c90 0 110 3 115 16 3 9 6 384 6 835 0 500 4 819 9 819 5 0 13 -9 16
-20 3 -11 11 -20 16 -20 5 0 9 -7 9 -15 0 -8 7 -15 15 -15 8 0 15 -4 15 -10 0
-5 16 -27 35 -47 19 -20 35 -41 35 -45 0 -4 11 -18 25 -32 14 -14 25 -30 25
-36 0 -5 7 -10 15 -10 8 0 15 -5 15 -10 0 -6 11 -22 25 -36 14 -14 25 -31 25
-39 0 -8 5 -15 11 -15 12 0 39 -25 39 -36 0 -4 11 -17 25 -30 14 -13 25 -26
25 -29 0 -4 6 -13 13 -20 29 -33 37 -45 37 -55 0 -5 5 -10 11 -10 11 0 39 -24
39 -34 0 -3 8 -14 18 -24 29 -31 62 -72 62 -78 0 -3 16 -21 35 -41 19 -19 37
-44 40 -54 4 -11 11 -17 16 -14 5 4 9 1 9 -5 0 -6 11 -21 25 -34 14 -13 25
-26 25 -30 0 -4 12 -21 28 -36 38 -41 52 -58 52 -65 0 -4 16 -21 35 -39 19
-19 35 -36 35 -40 0 -8 13 -24 53 -66 15 -15 27 -31 27 -35 0 -10 28 -35 39
-35 10 0 16 -21 12 -43 -1 -5 3 -5 9 -2 7 4 14 -2 17 -14 3 -11 9 -18 14 -15
5 3 9 0 9 -6 0 -6 11 -21 25 -34 14 -13 25 -28 25 -35 0 -6 7 -11 15 -11 14 0
20 -12 16 -33 -1 -5 3 -6 9 -2 5 3 10 2 10 -4 0 -6 11 -21 25 -35 14 -14 25
-30 25 -36 0 -5 7 -10 15 -10 8 0 15 -5 15 -10 0 -6 11 -23 25 -38 14 -15 25
-32 25 -39 0 -7 7 -13 15 -13 8 0 15 -7 15 -15 0 -8 5 -15 10 -15 6 0 10 -7
10 -17 0 -9 3 -14 6 -10 7 7 44 -29 44 -43 0 -6 11 -21 25 -34 14 -13 25 -28
25 -35 0 -6 7 -11 15 -11 8 0 15 -5 15 -10 0 -6 11 -22 25 -36 14 -14 25 -31
25 -39 0 -8 7 -15 15 -15 8 0 15 -7 15 -16 0 -8 5 -12 10 -9 6 3 10 1 10 -6 0
-6 11 -22 25 -35 14 -13 25 -27 25 -31 0 -5 11 -20 25 -35 14 -15 25 -32 25
-38 0 -5 5 -10 11 -10 13 0 39 -25 39 -38 0 -6 7 -12 15 -16 8 -3 15 -13 15
-21 0 -9 4 -14 9 -10 5 3 12 -4 16 -15 3 -11 11 -20 16 -20 5 0 9 -5 9 -11 0
-7 11 -22 25 -35 14 -13 25 -28 25 -34 0 -6 5 -8 10 -5 6 3 10 0 10 -8 0 -8 7
-17 15 -21 8 -3 15 -10 15 -16 0 -6 11 -21 25 -34 14 -13 25 -28 25 -35 0 -6
7 -11 15 -11 8 0 15 -5 15 -10 0 -6 11 -22 25 -36 14 -14 25 -30 25 -36 0 -6
16 -25 35 -44 19 -18 35 -36 35 -39 0 -4 12 -20 28 -35 42 -45 52 -58 52 -70
0 -5 7 -10 15 -10 8 0 14 -4 13 -8 -2 -4 8 -20 22 -34 36 -39 50 -56 50 -63 0
-3 11 -16 25 -29 14 -13 25 -28 25 -35 0 -6 7 -11 15 -11 8 0 14 -3 13 -8 -2
-4 3 -14 10 -22 42 -49 62 -76 62 -82 0 -5 7 -8 15 -8 8 0 15 -5 15 -11 0 -7
11 -22 25 -35 14 -13 25 -30 25 -39 0 -8 7 -15 15 -15 8 0 15 -6 15 -13 0 -7
11 -21 25 -31 13 -10 22 -22 19 -27 -3 -5 2 -9 10 -9 9 0 16 -7 16 -15 0 -8
11 -25 25 -39 14 -14 25 -30 25 -36 0 -5 7 -10 15 -10 8 0 15 -5 15 -11 0 -6
12 -24 28 -39 15 -16 33 -36 40 -45 11 -13 127 -15 1012 -15 l1000 0 0 69 0
69 -63 11 c-35 6 -91 11 -125 11 -35 0 -62 4 -62 10 0 6 -18 10 -40 10 -27 0
-43 5 -46 15 -4 9 -19 15 -35 15 -16 0 -29 4 -29 9 0 5 -11 12 -25 15 -14 4
-25 11 -25 16 0 6 -5 10 -11 10 -7 0 -22 11 -35 25 -13 14 -26 25 -29 25 -3 0
-19 13 -37 30 -17 16 -35 30 -39 30 -5 0 -9 6 -9 14 0 7 -11 22 -25 32 -14 10
-25 24 -25 31 0 7 -7 13 -15 13 -8 0 -15 5 -15 11 0 6 -16 25 -35 43 -19 19
-35 37 -35 40 0 4 -6 14 -12 21 -30 33 -38 45 -38 55 0 5 -7 10 -15 10 -13 0
-15 76 -15 620 0 523 2 620 14 620 8 0 16 7 20 15 3 9 18 15 38 15 22 0 29 3
20 9 -10 6 -3 10 22 15 20 4 36 11 36 16 0 6 21 10 46 10 25 0 43 4 39 9 -3 5
20 13 52 17 70 8 237 -2 241 -16 2 -6 33 -10 68 -10 36 0 63 -4 60 -9 -3 -5
17 -11 44 -15 28 -4 50 -11 50 -16 0 -6 20 -10 45 -10 25 0 45 -4 45 -10 0 -5
18 -13 40 -16 22 -4 40 -10 40 -15 0 -5 17 -9 38 -9 20 -1 48 -7 62 -15 14 -8
35 -14 48 -15 12 0 22 -4 22 -10 0 -5 17 -10 39 -10 21 0 52 -7 67 -15 16 -8
44 -15 62 -15 17 0 32 -4 32 -10 0 -5 19 -10 43 -10 23 -1 53 -7 67 -15 14 -8
44 -14 68 -15 23 0 42 -4 42 -10 0 -5 24 -10 53 -10 28 0 65 -7 81 -15 18 -10
57 -15 107 -15 44 0 79 -4 79 -9 0 -5 74 -12 165 -16 91 -4 165 -11 165 -16 0
-12 363 -12 376 0 5 5 89 13 187 17 97 4 177 11 177 15 0 5 33 9 74 9 43 0 89
6 109 15 20 8 59 15 87 15 27 0 50 5 50 10 0 6 21 10 48 10 26 0 56 7 66 15
11 8 37 15 58 15 21 0 38 5 38 10 0 6 15 10 33 10 17 1 43 7 57 15 14 8 40 14
58 15 17 0 32 5 32 10 0 6 10 10 23 10 13 0 32 7 43 15 10 8 32 15 47 15 16 0
26 4 22 10 -3 6 5 10 19 10 13 0 31 7 40 15 8 8 24 15 36 15 12 0 28 7 36 15
9 8 26 15 40 15 13 0 24 5 24 10 0 6 11 10 25 10 16 0 25 6 25 15 0 9 9 15 25
15 14 0 25 5 25 10 0 6 9 10 19 10 10 0 21 7 25 15 3 8 12 15 21 15 8 0 15 5
15 10 0 6 11 10 25 10 16 0 25 6 25 15 0 9 9 15 25 15 14 0 25 5 25 10 0 6 7
10 15 10 8 0 15 4 15 10 0 5 11 12 25 16 14 3 22 10 19 15 -3 5 1 9 9 9 8 0
17 7 21 15 3 8 13 15 22 15 9 0 27 11 40 25 13 14 28 25 34 25 5 0 10 5 10 11
0 5 4 8 8 5 5 -3 15 4 22 15 8 10 20 19 27 19 7 0 13 7 13 15 0 8 5 15 11 15
6 0 26 16 45 35 18 19 37 35 41 35 5 0 14 9 21 20 7 12 17 18 22 15 6 -3 10 0
10 7 0 7 23 37 50 65 28 29 50 57 50 63 0 5 7 10 15 10 8 0 15 5 15 11 0 6 6
17 13 24 29 33 37 45 37 55 0 5 4 10 9 10 5 0 12 11 15 25 4 14 11 25 16 25 6
0 10 7 10 15 0 8 4 15 10 15 5 0 12 11 16 25 3 14 10 25 15 25 5 0 9 9 9 21 0
11 6 26 13 33 7 8 19 33 26 57 7 24 19 56 27 71 8 14 14 40 14 57 0 17 4 31 9
31 4 0 11 29 14 65 4 36 11 74 17 84 13 26 13 274 0 287 -6 6 -14 43 -17 82
-3 40 -10 72 -14 72 -5 0 -9 15 -9 33 0 17 -7 41 -15 51 -8 11 -15 30 -15 43
0 13 -4 23 -10 23 -5 0 -10 11 -10 24 0 13 -7 29 -15 36 -8 7 -15 21 -15 31 0
11 -4 19 -10 19 -5 0 -10 9 -10 20 0 11 -7 23 -15 26 -8 4 -15 15 -15 25 0 10
-4 19 -10 19 -5 0 -10 6 -10 14 0 8 -7 16 -15 20 -8 3 -15 12 -15 21 0 9 -11
26 -25 39 -14 13 -25 28 -25 35 0 6 -22 34 -50 61 -27 27 -50 54 -50 60 0 5
-5 10 -11 10 -6 0 -17 6 -25 14 -8 8 -14 19 -14 25 0 6 -4 11 -10 11 -15 0
-50 33 -44 42 3 4 0 8 -7 8 -6 0 -22 11 -35 25 -13 14 -28 25 -34 25 -6 0 -21
11 -34 25 -13 14 -28 25 -35 25 -6 0 -11 4 -11 10 0 5 -11 12 -25 16 -14 4
-23 9 -21 12 6 5 -26 27 -56 38 -10 3 -18 10 -18 15 0 5 -7 9 -15 9 -8 0 -15
4 -15 10 0 5 -11 12 -25 16 -14 3 -25 10 -25 14 0 4 -11 11 -25 14 -14 4 -25
11 -25 16 0 6 -9 10 -21 10 -11 0 -17 5 -14 10 3 6 -3 10 -15 10 -11 0 -23 7
-26 15 -4 8 -17 15 -30 15 -13 0 -24 4 -24 10 0 5 -11 12 -25 16 -14 3 -25 10
-25 15 0 5 -11 9 -25 9 -14 0 -25 4 -25 10 0 5 -11 12 -25 16 -14 3 -25 10
-25 15 0 5 -11 9 -25 9 -14 0 -25 4 -25 10 0 5 -11 12 -25 16 -14 3 -25 10
-25 15 0 5 -9 9 -21 9 -11 0 -27 7 -35 15 -9 8 -24 15 -35 15 -10 0 -19 5 -19
10 0 6 -8 10 -18 10 -10 0 -27 7 -38 15 -10 8 -29 15 -41 15 -13 0 -23 4 -23
9 0 5 -11 12 -25 15 -14 4 -25 11 -25 16 0 6 -14 10 -31 10 -16 0 -28 4 -25 9
3 5 -12 11 -34 15 -22 3 -40 11 -40 16 0 6 -11 10 -25 10 -14 0 -25 4 -25 9 0
5 -16 12 -35 15 -19 4 -35 11 -35 16 0 6 -13 10 -30 10 -16 0 -30 4 -30 10 0
5 -16 12 -35 16 -19 3 -35 10 -35 15 0 5 -13 9 -29 9 -16 0 -31 5 -33 10 -2 6
-17 13 -33 16 -17 3 -31 9 -33 15 -2 5 -16 9 -30 9 -15 0 -36 7 -46 15 -11 8
-30 15 -43 15 -13 0 -23 5 -23 10 0 6 -12 10 -26 10 -14 0 -32 7 -40 15 -9 8
-29 15 -45 15 -16 0 -29 5 -29 10 0 6 -10 10 -23 10 -13 0 -32 7 -43 15 -10 8
-34 15 -51 15 -18 0 -33 5 -33 10 0 6 -11 10 -25 10 -14 0 -28 7 -31 15 -4 9
-19 15 -40 15 -19 0 -34 5 -34 10 0 6 -11 10 -24 10 -14 0 -31 7 -40 15 -8 8
-28 15 -45 15 -16 0 -32 4 -36 9 -3 5 -19 12 -35 16 -17 4 -28 11 -24 16 3 5
-13 9 -35 9 -23 0 -41 4 -41 10 0 5 -16 12 -35 16 -19 3 -35 10 -35 15 0 5
-12 9 -26 9 -14 0 -32 7 -40 15 -9 8 -26 15 -40 15 -13 0 -24 5 -24 10 0 6
-10 10 -22 10 -13 0 -32 7 -42 15 -11 8 -30 15 -43 15 -13 0 -23 5 -23 10 0 6
-10 10 -22 10 -13 0 -32 7 -42 15 -11 8 -30 15 -43 15 -13 0 -23 5 -23 10 0 6
-9 10 -19 10 -11 0 -26 7 -35 15 -8 8 -26 15 -40 15 -14 0 -26 4 -26 9 0 5
-11 12 -25 15 -14 4 -25 11 -25 16 0 6 -13 10 -30 10 -16 0 -30 4 -30 10 0 5
-11 12 -25 16 -14 3 -25 10 -25 15 0 5 -9 9 -20 9 -11 0 -23 7 -26 15 -4 8
-10 13 -14 10 -5 -3 -15 2 -23 10 -9 8 -20 15 -26 15 -6 0 -11 4 -11 9 0 5
-11 12 -25 15 -14 4 -25 11 -25 16 0 6 -7 10 -15 10 -8 0 -15 4 -15 9 0 5 -10
13 -22 17 -13 4 -33 17 -45 30 -12 13 -27 24 -33 24 -6 0 -21 11 -34 25 -13
14 -26 25 -30 25 -11 0 -36 27 -36 39 0 6 -5 11 -11 11 -14 0 -39 25 -39 39 0
6 -7 11 -15 11 -8 0 -15 5 -15 10 0 6 -11 22 -25 36 -14 14 -25 31 -25 39 0 7
-3 15 -7 17 -15 6 -43 70 -43 98 0 16 -5 30 -11 32 -8 3 -11 41 -11 113 0 72
3 110 11 113 6 2 11 19 11 38 0 19 4 34 9 34 5 0 12 14 16 30 4 17 11 30 16
30 5 0 9 7 9 15 0 9 11 26 25 39 14 13 25 27 25 31 0 10 106 115 115 115 4 0
18 11 31 25 13 14 30 25 37 25 8 0 18 7 21 16 3 8 10 12 16 9 5 -3 10 1 10 9
0 10 9 16 25 16 14 0 25 3 25 8 0 11 59 42 80 42 10 0 20 7 24 15 3 8 17 15
31 15 15 0 24 4 20 10 -4 6 8 10 30 10 20 0 43 7 51 15 9 8 29 15 45 15 16 0
29 5 29 10 0 6 20 10 44 10 24 0 60 7 79 15 20 8 66 15 102 15 37 0 65 4 65
10 0 6 97 10 271 10 158 0 268 -4 265 -9 -4 -5 37 -11 91 -13 66 -2 98 -7 101
-15 2 -8 23 -13 57 -13 30 0 56 -4 59 -9 3 -4 27 -11 53 -14 26 -3 49 -10 51
-16 2 -6 21 -11 43 -11 21 0 39 -4 39 -9 0 -5 18 -11 40 -15 22 -3 40 -11 40
-16 0 -6 16 -10 35 -10 19 0 35 -4 35 -9 0 -5 14 -12 30 -16 17 -4 30 -11 30
-16 0 -5 14 -9 30 -9 17 0 30 -4 30 -9 0 -5 14 -12 30 -16 17 -4 30 -11 30
-16 0 -5 11 -9 25 -9 14 0 25 -6 25 -13 0 -7 10 -13 22 -14 11 -1 24 -6 27
-11 3 -5 16 -12 29 -16 12 -4 22 -12 22 -17 0 -5 9 -9 20 -9 11 0 20 -4 20
-10 0 -5 9 -10 20 -10 11 0 20 -7 20 -15 0 -9 9 -15 21 -15 12 0 32 -11 45
-25 13 -14 30 -25 39 -25 8 0 15 -4 15 -10 0 -5 7 -10 15 -10 8 0 15 -7 15
-15 0 -9 9 -15 25 -15 16 0 25 -6 25 -16 0 -8 5 -12 10 -9 6 3 13 0 16 -8 3
-8 21 -23 40 -33 19 -10 34 -22 34 -26 0 -5 7 -8 15 -8 8 0 15 -5 15 -11 0
-14 25 -39 39 -39 6 0 11 -7 11 -15 0 -8 7 -15 16 -15 8 0 12 -4 9 -10 -3 -5
1 -10 9 -10 9 0 16 -7 16 -15 0 -8 5 -15 11 -15 14 0 39 -25 39 -39 0 -6 5
-11 11 -11 11 0 39 -24 39 -34 0 -3 12 -19 28 -35 43 -47 52 -59 52 -71 0 -5
5 -10 10 -10 6 0 10 -6 10 -14 0 -8 7 -16 15 -20 8 -3 15 -12 15 -20 0 -7 7
-17 16 -20 8 -3 12 -10 9 -16 -3 -6 1 -13 9 -16 9 -3 16 -15 16 -25 0 -10 4
-19 9 -19 5 0 12 -11 15 -25 4 -14 11 -25 16 -25 6 0 10 -11 10 -24 0 -13 7
-26 15 -30 8 -3 15 -15 15 -26 0 -11 5 -20 10 -20 6 0 10 -11 10 -24 0 -13 7
-29 15 -36 8 -7 15 -21 15 -31 0 -10 5 -21 10 -24 6 -3 10 -18 10 -33 0 -15 7
-36 15 -46 8 -11 15 -32 15 -48 0 -15 5 -28 10 -28 6 0 10 -15 10 -34 0 -51
14 -57 136 -54 l109 3 -3 95 c-1 52 -5 252 -8 445 -3 192 -9 352 -13 355 -5 3
-14 174 -20 380 -6 206 -14 423 -17 483 l-5 107 -84 0 c-87 0 -95 -4 -95 -51
0 -11 -4 -17 -10 -14 -6 4 -10 -5 -10 -20 0 -15 -7 -33 -15 -41 -8 -9 -15 -24
-15 -35 0 -10 -4 -19 -10 -19 -5 0 -10 -9 -10 -20 0 -11 -7 -23 -15 -26 -8 -4
-15 -12 -15 -20 0 -18 -52 -70 -79 -79 -11 -3 -21 -11 -21 -16 0 -5 -20 -9
-45 -9 -25 0 -45 -4 -45 -10 0 -6 -38 -10 -95 -10 -57 0 -95 4 -95 10 0 6 -24
10 -54 10 -29 0 -67 7 -82 15 -16 8 -44 15 -61 15 -18 0 -33 5 -33 10 0 6 -15
10 -32 10 -18 0 -42 7 -52 15 -11 8 -32 15 -48 15 -15 0 -28 5 -28 10 0 6 -14
10 -31 10 -17 0 -37 7 -45 15 -9 8 -29 15 -45 15 -16 0 -29 5 -29 10 0 6 -15
10 -33 10 -18 0 -42 7 -53 15 -10 8 -34 15 -51 15 -18 0 -33 4 -33 9 0 4 -21
11 -47 14 -26 3 -49 10 -51 16 -2 6 -24 11 -48 11 -24 0 -44 4 -44 9 0 4 -27
11 -60 15 -34 4 -58 11 -55 17 4 5 -21 9 -59 9 -36 0 -66 4 -66 9 0 5 -36 12
-80 16 -44 4 -80 11 -80 16 0 5 -56 9 -124 9 -73 0 -127 4 -131 10 -4 6 -113
10 -295 10 -182 0 -291 -4 -295 -10z" />
        <!-- <path
            d="M973 4716 c-213 -70 -398 -375 -464 -766 -31 -187 -29 -562 6 -777
17 -107 64 -258 97 -313 85 -139 256 -322 491 -526 214 -185 267 -241 309
-330 46 -99 60 -188 55 -354 -5 -163 -21 -224 -82 -316 -85 -129 -250 -124
-394 10 -208 195 -372 669 -462 1339 -20 147 -24 167 -41 167 -17 0 -18 -32
-18 -850 0 -843 0 -850 20 -850 17 0 20 7 20 48 0 27 7 120 15 207 17 180 37
240 80 251 36 9 70 -25 200 -196 177 -234 274 -305 415 -305 103 1 171 34 265
129 195 197 298 485 312 871 17 463 -96 890 -295 1116 -76 86 -200 202 -347
324 -178 148 -234 208 -282 300 -64 123 -77 179 -77 330 -1 102 3 142 18 185
25 74 57 128 103 172 62 60 115 71 210 43 118 -35 212 -156 321 -415 81 -190
125 -347 162 -570 27 -168 28 -170 48 -170 16 0 17 39 16 626 -1 344 -4 628
-8 631 -3 3 -12 3 -21 0 -12 -5 -15 -24 -15 -91 0 -170 -34 -295 -82 -304 -11
-2 -61 50 -146 150 -71 84 -143 163 -159 174 -88 65 -188 87 -270 60z" />
        <path
            d="M13133 4716 c-211 -69 -400 -379 -463 -762 -33 -195 -30 -562 5 -782
17 -106 64 -257 97 -312 85 -139 256 -322 491 -526 214 -185 267 -241 309
-330 46 -99 60 -188 55 -354 -5 -163 -21 -224 -82 -316 -85 -129 -250 -124
-394 10 -208 195 -372 669 -462 1339 -20 147 -24 167 -41 167 -17 0 -18 -32
-18 -850 0 -843 0 -850 20 -850 17 0 20 7 20 48 0 27 7 120 15 207 17 180 37
240 80 251 36 9 70 -25 200 -196 177 -234 274 -305 415 -305 103 1 171 34 265
129 195 197 298 485 312 871 17 463 -96 890 -295 1116 -76 86 -200 202 -347
324 -178 148 -234 208 -282 300 -64 123 -77 179 -77 330 -1 102 3 142 18 185
25 74 57 128 103 172 62 60 115 71 210 43 118 -35 212 -156 321 -415 81 -190
125 -347 162 -570 27 -168 28 -170 48 -170 16 0 17 39 16 626 -1 344 -4 628
-8 631 -3 3 -12 3 -21 0 -12 -5 -15 -24 -15 -91 0 -170 -34 -295 -82 -304 -11
-2 -61 50 -146 150 -71 84 -143 163 -159 174 -88 65 -188 87 -270 60z" />
        <path
            d="M3120 4641 c0 -39 0 -39 48 -46 58 -9 96 -30 114 -64 17 -34 25
-3075 7 -3158 -12 -59 -33 -80 -91 -90 -36 -5 -38 -7 -38 -44 l0 -39 340 0
340 0 0 39 c0 36 -2 39 -34 45 -67 13 -70 25 -77 255 -4 113 -7 492 -8 841
l-1 635 24 101 c14 56 32 120 42 143 32 81 101 105 154 53 67 -67 72 -150 68
-1122 -3 -656 -6 -832 -17 -858 -11 -26 -22 -35 -57 -44 -42 -12 -44 -14 -44
-50 l0 -38 340 0 340 0 0 39 c0 37 -2 39 -38 45 -35 5 -65 28 -88 66 -5 8 -11
387 -15 855 -5 823 -6 842 -27 918 -45 162 -133 295 -232 351 -48 27 -64 31
-130 30 -88 0 -138 -22 -190 -80 -39 -44 -87 -144 -111 -229 -17 -58 -18 -36
-18 713 l-1 772 -300 0 -300 0 0 -39z" />
        <path
            d="M7500 4641 l0 -39 59 -4 c101 -7 154 -66 223 -248 l32 -85 4 -1095
c2 -609 -1 -1221 -7 -1380 -15 -433 -30 -466 -233 -502 l-58 -10 0 -39 0 -39
315 0 315 0 0 40 c0 22 -3 40 -7 40 -40 1 -154 35 -184 54 -49 33 -75 102 -89
236 -14 141 -13 2542 1 2517 9 -16 39 -97 179 -487 27 -74 126 -349 220 -610
94 -261 177 -491 184 -510 7 -19 113 -315 237 -657 l224 -623 132 0 132 0 4
1553 c3 1439 5 1557 21 1627 34 144 78 187 216 212 l60 10 0 39 0 39 -320 0
-320 0 0 -38 0 -39 82 -16 c163 -32 192 -85 209 -377 10 -195 12 -1730 1
-1730 -4 0 -19 35 -34 78 -23 69 -282 790 -553 1542 -57 157 -126 351 -155
433 l-53 147 -418 0 -419 0 0 -39z" />
        <path
            d="M14020 4641 l0 -39 51 -7 c76 -11 107 -43 120 -125 6 -42 9 -614 7
-1585 -3 -1415 -4 -1522 -20 -1551 -17 -31 -60 -54 -99 -54 -15 0 -19 -8 -19
-40 l0 -40 340 0 340 0 0 39 c0 37 -1 38 -42 47 -77 16 -73 -36 -76 898 -4
895 -5 866 49 1043 50 161 174 150 215 -20 15 -64 18 -151 21 -792 3 -396 0
-803 -5 -904 -9 -183 -9 -184 -36 -208 -15 -12 -38 -23 -52 -23 -21 0 -24 -4
-24 -40 l0 -40 340 0 340 0 0 40 c0 32 -4 40 -19 40 -39 0 -82 23 -99 54 -16
28 -17 102 -23 861 -5 708 -8 840 -21 895 -46 190 -142 336 -257 392 -62 31
-168 31 -227 0 -80 -41 -132 -119 -183 -273 l-26 -78 3 775 2 774 -300 0 -300
0 0 -39z" />
        <path
            d="M20050 4641 c0 -38 0 -39 46 -46 26 -3 57 -11 69 -17 52 -24 50 49
53 -1588 2 -839 0 -1554 -3 -1589 -8 -76 -33 -107 -94 -117 -40 -6 -41 -8 -41
-45 l0 -39 355 0 355 0 0 40 c0 37 -2 40 -27 40 -44 0 -90 34 -104 77 -9 29
-13 427 -16 1681 l-5 1642 -294 0 -294 0 0 -39z" />
        <path
            d="M2391 3494 c-244 -66 -401 -313 -401 -634 0 -149 41 -254 120 -308
67 -45 184 -15 240 62 43 57 71 155 77 263 7 114 -7 191 -53 286 -38 79 -44
143 -20 201 36 87 137 88 171 2 9 -22 21 -92 26 -156 12 -165 11 -597 -2 -645
-22 -79 -99 -124 -278 -166 -167 -38 -203 -63 -255 -173 -60 -127 -70 -189
-70 -446 0 -212 2 -243 22 -315 62 -222 171 -328 319 -311 138 16 231 123 284
326 l12 45 14 -75 c33 -175 136 -300 246 -300 58 0 131 28 164 62 71 75 116
169 143 298 16 76 26 400 13 400 -18 0 -23 -28 -23 -128 0 -124 -22 -272 -47
-314 -33 -56 -72 -48 -95 21 -8 26 -13 249 -18 791 -6 729 -7 758 -27 832 -31
109 -67 174 -140 249 -124 129 -268 175 -422 133z m167 -1584 c-3 -385 -4
-396 -26 -452 -32 -79 -58 -110 -90 -106 -68 8 -86 130 -79 523 7 366 15 403
107 501 26 27 56 66 66 85 l19 34 3 -95 c2 -52 2 -273 0 -490z" />
        <path
            d="M5085 3496 c-136 -34 -265 -145 -334 -288 -55 -114 -74 -217 -69
-371 3 -107 7 -129 30 -177 57 -121 139 -159 243 -111 159 72 215 386 108 607
-29 61 -37 90 -37 129 2 120 94 186 163 117 42 -42 50 -113 52 -497 2 -321 1
-343 -17 -373 -32 -55 -98 -89 -249 -127 -76 -20 -150 -42 -165 -50 -130 -67
-209 -373 -181 -698 13 -149 37 -251 81 -335 73 -143 180 -197 312 -158 104
30 179 123 224 276 23 79 25 78 43 -10 24 -117 92 -224 164 -259 80 -39 191
-18 250 48 103 114 143 252 154 524 6 151 5 167 -10 167 -15 0 -17 -13 -17
-92 0 -178 -30 -349 -65 -378 -24 -20 -62 -4 -76 32 -10 26 -14 203 -19 788
-7 807 -7 807 -59 939 -28 69 -67 125 -127 182 -120 112 -255 151 -399 115z
m162 -1499 c-2 -465 -3 -473 -25 -534 -57 -153 -136 -148 -163 12 -16 93 -16
554 0 665 19 132 27 153 85 218 30 33 62 74 72 91 10 16 21 28 26 25 4 -3 6
-217 5 -477z" />
        <path
            d="M9993 3495 c-245 -66 -403 -313 -403 -629 0 -156 40 -259 120 -314
28 -19 45 -23 86 -20 76 6 123 35 162 99 44 73 62 137 69 244 7 112 -7 184
-52 285 -39 86 -46 160 -20 210 33 65 98 79 145 32 45 -46 52 -105 54 -491 1
-307 -1 -349 -16 -377 -33 -60 -119 -103 -282 -139 -148 -32 -189 -61 -240
-168 -107 -228 -107 -675 1 -897 38 -77 104 -145 160 -164 169 -58 328 61 387
287 17 69 26 82 26 41 0 -81 57 -216 117 -278 65 -66 123 -80 220 -51 64 19
118 77 168 179 47 95 64 188 72 393 5 150 4 173 -9 173 -12 0 -16 -27 -21
-157 -6 -164 -22 -253 -51 -298 -25 -38 -56 -30 -81 20 -19 39 -20 66 -26 800
-6 844 -4 818 -75 962 -40 81 -140 185 -214 223 -97 50 -198 61 -297 35z m152
-1980 c-28 -128 -87 -194 -134 -151 -39 35 -46 102 -46 441 0 424 8 465 107
574 27 29 56 67 66 85 16 30 17 12 20 -424 2 -382 0 -466 -13 -525z" />
        <path
            d="M16005 3496 c-133 -42 -227 -132 -320 -309 -125 -236 -178 -487 -179
-852 -1 -404 70 -704 220 -939 83 -129 168 -200 278 -231 295 -85 572 260 663
826 24 149 24 523 0 679 -43 278 -135 517 -258 669 -111 137 -271 199 -404
157z m126 -76 c29 -16 59 -85 80 -184 51 -243 51 -1559 0 -1809 -23 -114 -54
-177 -93 -191 -65 -23 -114 46 -143 204 -41 218 -42 1547 -1 1762 35 188 84
256 157 218z" />
        <path
            d="M17535 3501 c-110 -29 -158 -95 -211 -291 l-23 -85 -1 168 0 167
-280 0 -280 0 0 -40 c0 -37 2 -39 38 -46 54 -9 79 -29 93 -71 16 -47 25 -1689
11 -1856 -10 -124 -27 -153 -94 -163 -36 -6 -38 -8 -38 -45 l0 -39 325 0 325
0 0 39 c0 30 -5 41 -18 45 -11 4 -30 18 -43 32 l-24 26 -3 851 c-3 835 -2 854
18 957 12 58 31 123 43 145 39 71 116 73 149 5 35 -73 39 -180 36 -1080 -3
-823 -4 -878 -21 -903 -10 -16 -31 -30 -47 -34 -27 -5 -30 -9 -30 -44 l0 -39
310 0 310 0 0 39 c0 34 -4 40 -31 52 -64 26 -62 -3 -63 909 -1 872 0 905 46
1027 23 64 67 113 100 113 36 0 68 -41 86 -107 13 -50 16 -178 19 -879 3 -506
0 -863 -6 -930 -11 -116 -17 -129 -73 -141 -25 -5 -28 -10 -28 -44 l0 -39 330
0 330 0 0 40 c0 30 -4 40 -16 40 -30 0 -81 31 -95 58 -11 22 -15 178 -20 862
-6 941 -4 910 -84 1075 -47 99 -116 178 -181 211 -29 14 -60 19 -120 19 -95
-1 -158 -27 -205 -85 -28 -35 -62 -141 -91 -280 l-14 -65 -17 70 c-40 156
-127 289 -221 337 -44 22 -142 32 -191 19z" />
        <path
            d="M19299 3492 c-81 -21 -150 -65 -221 -140 -103 -108 -151 -226 -170
-412 -10 -98 -9 -127 5 -193 27 -132 97 -217 177 -217 92 0 155 40 199 129 42
83 54 150 49 286 -3 116 -5 123 -46 211 -23 50 -42 104 -42 120 0 161 155 213
201 68 13 -43 26 -709 15 -769 -15 -80 -94 -131 -264 -171 -145 -34 -204 -62
-236 -112 -37 -60 -72 -148 -92 -237 -26 -114 -27 -425 -1 -544 38 -176 102
-286 197 -334 47 -25 63 -28 116 -24 140 10 235 105 287 287 l25 85 7 -40 c38
-223 142 -346 280 -332 73 7 127 38 168 94 93 129 119 230 133 516 6 133 5
147 -10 147 -13 0 -16 -11 -16 -62 0 -98 -19 -278 -35 -335 -33 -114 -92 -113
-117 2 -5 22 -13 378 -17 790 -8 824 -6 798 -72 932 -59 122 -182 226 -304
258 -75 19 -133 18 -216 -3z m151 -2014 c-24 -79 -61 -128 -96 -128 -39 0 -61
64 -75 211 -14 149 -5 519 15 630 17 93 33 125 101 199 29 31 57 68 61 81 5
14 10 -172 12 -451 2 -452 1 -478 -18 -542z" />
        <path
            d="M6628 3476 c-93 -33 -122 -78 -172 -256 -19 -69 -35 -116 -36 -105 0
11 0 93 0 183 l1 162 -286 0 -285 0 0 -39 c0 -38 1 -38 53 -52 45 -12 55 -19
72 -54 20 -39 20 -60 20 -990 0 -772 -3 -956 -13 -982 -15 -34 -63 -63 -106
-63 -24 0 -26 -4 -26 -40 l0 -40 365 0 365 0 0 39 c0 40 0 40 -46 47 -64 9
-92 37 -104 103 -6 33 -10 350 -10 808 0 806 0 803 51 969 23 74 67 131 92
121 23 -9 21 -35 -9 -168 -21 -89 -27 -142 -28 -244 -1 -144 10 -206 55 -300
66 -141 161 -173 249 -85 97 97 148 317 129 558 -9 115 -29 194 -70 282 -64
137 -151 185 -261 146z" />
        <path
            d="M10830 2939 c0 -393 3 -520 12 -517 6 2 24 56 40 119 61 241 185 571
263 699 19 32 54 75 76 95 41 37 42 37 111 33 38 -3 71 -8 74 -11 3 -2 -67
-234 -155 -513 -436 -1388 -501 -1599 -501 -1620 l0 -24 555 0 555 0 0 535 c0
423 -3 535 -13 535 -7 0 -25 -51 -46 -132 -18 -73 -59 -212 -91 -308 -97 -289
-168 -438 -240 -504 -40 -36 -40 -36 -133 -36 -52 0 -96 3 -99 6 -4 3 4 38 17
77 13 40 53 169 90 287 36 118 81 262 100 320 186 586 445 1432 445 1453 l0
27 -530 0 -530 0 0 -521z" /> -->
    </g>
</svg>