<?xml version="1.0" standalone="no"?>
<!DOCTYPE svg PUBLIC "-//W3C//DTD SVG 20010904//EN"
 "http://www.w3.org/TR/2001/REC-SVG-20010904/DTD/svg10.dtd">
<svg version="1.0" xmlns="http://www.w3.org/2000/svg"
 width="2126.000000pt" height="1535.000000pt" viewBox="0 0 2126.000000 1535.000000"
 preserveAspectRatio="xMidYMid meet">

<g transform="translate(0.000000,1535.000000) scale(0.100000,-0.100000)"
fill="#252364" stroke="none">
<path d="M14475 14750 c-4 -6 -58 -10 -131 -10 -68 0 -124 -4 -124 -9 0 -4
-36 -12 -80 -15 -44 -4 -80 -12 -80 -17 0 -5 -27 -9 -61 -9 -35 0 -58 -4 -54
-9 3 -6 -21 -13 -55 -17 -33 -4 -60 -11 -60 -15 0 -5 -17 -9 -37 -9 -21 0 -47
-7 -57 -15 -11 -8 -33 -15 -49 -15 -16 0 -26 -4 -22 -10 4 -6 -7 -10 -27 -10
-18 0 -42 -7 -52 -15 -11 -8 -30 -15 -43 -15 -13 0 -23 -4 -23 -10 0 -5 -10
-10 -22 -10 -13 0 -32 -7 -42 -15 -11 -8 -28 -15 -38 -15 -10 0 -18 -4 -18
-10 0 -5 -8 -10 -19 -10 -10 0 -24 -7 -31 -15 -7 -8 -23 -15 -36 -15 -13 0
-24 -4 -24 -10 0 -5 -11 -12 -25 -16 -14 -3 -25 -10 -25 -15 0 -5 -8 -9 -18
-9 -9 0 -29 -11 -44 -25 -15 -14 -32 -25 -38 -25 -6 0 -18 -6 -25 -12 -34 -31
-45 -38 -56 -38 -6 0 -22 -11 -35 -25 -13 -14 -32 -25 -44 -25 -11 0 -20 -7
-20 -15 0 -8 -7 -15 -16 -15 -8 0 -12 -4 -9 -10 3 -5 -1 -10 -9 -10 -9 0 -16
-4 -16 -10 0 -5 -11 -12 -25 -16 -14 -3 -22 -10 -19 -15 3 -5 1 -9 -5 -9 -16
0 -231 -219 -231 -235 0 -9 -4 -14 -9 -10 -5 3 -12 -4 -16 -15 -3 -11 -11 -20
-16 -20 -5 0 -9 -5 -9 -11 0 -6 -6 -17 -12 -24 -24 -26 -33 -40 -53 -77 -11
-21 -23 -38 -27 -38 -5 0 -8 -11 -8 -24 0 -13 -7 -26 -15 -30 -8 -3 -15 -17
-15 -31 0 -14 -4 -25 -10 -25 -5 0 -10 -11 -10 -24 0 -14 -7 -31 -15 -40 -8
-8 -15 -31 -15 -50 0 -20 -4 -36 -9 -36 -4 0 -11 -21 -14 -47 -3 -26 -10 -49
-16 -51 -16 -5 -15 -419 0 -424 6 -2 14 -27 17 -56 2 -29 8 -52 13 -52 5 0 9
-16 9 -36 0 -19 7 -42 15 -50 8 -9 15 -24 15 -35 0 -11 5 -17 10 -14 6 3 10
-5 10 -19 0 -13 7 -32 16 -40 8 -9 16 -25 17 -36 1 -11 5 -20 9 -20 4 0 8 -7
8 -15 0 -8 4 -15 10 -15 5 0 12 -11 16 -25 3 -14 10 -25 15 -25 5 0 9 -7 9
-15 0 -8 7 -15 15 -15 8 0 15 -7 15 -15 0 -9 11 -26 25 -39 14 -13 25 -26 25
-30 0 -4 33 -41 74 -81 40 -41 71 -77 68 -80 -3 -3 0 -5 7 -5 6 0 22 -11 35
-25 13 -14 28 -25 35 -25 6 0 11 -5 11 -11 0 -14 25 -39 39 -39 6 0 11 -7 11
-16 0 -8 5 -12 10 -9 6 3 13 -1 16 -9 3 -9 11 -16 18 -16 6 0 23 -11 38 -25
15 -14 32 -25 38 -25 5 0 10 -4 10 -10 0 -5 11 -12 25 -16 14 -3 25 -10 25
-14 0 -5 9 -12 20 -15 11 -4 18 -11 15 -16 -4 -5 3 -9 14 -9 12 0 21 -4 21 -9
0 -5 11 -12 25 -15 14 -4 25 -11 25 -16 0 -6 7 -10 15 -10 8 0 15 -4 15 -9 0
-5 11 -12 25 -15 14 -4 25 -11 25 -16 0 -6 8 -10 19 -10 10 0 24 -7 31 -15 7
-8 19 -15 26 -15 8 0 14 -4 14 -10 0 -5 9 -10 20 -10 11 0 20 -4 20 -10 0 -5
11 -12 25 -16 14 -3 25 -10 25 -15 0 -5 9 -9 21 -9 11 0 27 -7 35 -15 9 -8 27
-15 40 -15 14 0 22 -4 19 -10 -3 -5 2 -10 12 -10 11 0 28 -7 39 -15 10 -8 29
-15 42 -15 13 0 21 -4 18 -9 -4 -5 7 -12 24 -16 16 -4 30 -11 30 -16 0 -5 11
-9 25 -9 14 0 25 -4 25 -10 0 -5 11 -10 24 -10 14 0 31 -7 40 -15 8 -8 26 -15
40 -15 14 0 26 -4 26 -8 0 -11 72 -42 98 -42 12 0 22 -4 22 -9 0 -5 14 -12 30
-16 17 -4 30 -11 30 -16 0 -5 14 -9 31 -9 17 0 37 -7 45 -15 9 -8 24 -15 35
-15 10 0 19 -4 19 -10 0 -5 12 -10 28 -10 15 0 36 -7 46 -15 11 -8 30 -15 43
-15 13 0 23 -4 23 -10 0 -5 11 -10 24 -10 13 0 29 -7 36 -15 7 -8 25 -15 41
-15 16 0 29 -4 29 -10 0 -5 10 -10 23 -10 13 0 32 -7 43 -15 10 -8 29 -15 41
-15 12 0 24 -4 27 -9 3 -5 22 -12 41 -15 19 -4 35 -11 35 -16 0 -6 16 -10 35
-10 19 0 35 -4 35 -10 0 -5 11 -10 24 -10 14 0 31 -7 40 -15 8 -8 26 -15 40
-15 14 0 27 -4 30 -9 3 -5 22 -12 41 -15 19 -4 35 -11 35 -16 0 -6 14 -10 31
-10 17 0 37 -7 45 -15 9 -8 26 -15 40 -15 13 0 24 -4 24 -10 0 -5 13 -10 29
-10 16 0 34 -7 41 -15 7 -8 25 -15 41 -15 16 0 29 -4 29 -10 0 -5 11 -10 24
-10 14 0 31 -7 40 -15 8 -8 24 -15 35 -15 12 0 21 -4 21 -10 0 -5 11 -10 24
-10 14 0 31 -7 40 -15 8 -8 26 -15 40 -15 14 0 26 -4 26 -10 0 -5 11 -10 24
-10 13 0 26 -7 30 -15 3 -9 18 -15 36 -15 16 0 30 -4 30 -9 0 -5 14 -12 30
-16 17 -4 30 -11 30 -16 0 -5 11 -9 25 -9 14 0 25 -4 25 -10 0 -5 11 -12 25
-16 14 -3 25 -10 25 -15 0 -5 11 -9 25 -9 14 0 25 -4 25 -10 0 -5 11 -12 25
-16 14 -3 25 -10 25 -15 0 -5 11 -9 25 -9 16 0 25 -6 25 -15 0 -8 8 -15 19
-15 10 0 30 -11 45 -25 15 -14 34 -25 42 -25 7 0 14 -4 14 -10 0 -5 7 -10 15
-10 8 0 15 -7 15 -15 0 -8 9 -15 19 -15 10 0 21 -7 25 -15 3 -8 11 -15 18 -15
8 0 20 -9 28 -20 8 -11 20 -20 27 -20 7 0 13 -7 13 -15 0 -8 5 -15 11 -15 14
0 39 -25 39 -39 0 -6 5 -11 11 -11 11 0 39 -25 39 -35 0 -3 11 -16 25 -29 14
-13 25 -30 25 -37 0 -8 12 -25 25 -38 14 -13 25 -31 25 -40 0 -9 7 -25 15 -35
8 -11 15 -28 15 -38 0 -10 3 -18 8 -18 12 0 35 -120 35 -185 0 -65 -23 -185
-35 -185 -5 0 -8 -11 -8 -25 0 -14 -4 -25 -10 -25 -5 0 -12 -11 -16 -25 -3
-14 -10 -25 -14 -25 -4 0 -11 -11 -14 -25 -4 -14 -11 -25 -16 -25 -6 0 -10 -7
-10 -16 0 -8 -4 -12 -10 -9 -5 3 -10 -1 -10 -9 0 -9 -7 -16 -15 -16 -8 0 -15
-5 -15 -11 0 -14 -25 -39 -39 -39 -6 0 -11 -5 -11 -11 0 -14 -25 -39 -39 -39
-6 0 -11 -7 -11 -15 0 -8 -7 -15 -15 -15 -8 0 -15 -4 -15 -8 0 -5 -16 -17 -35
-28 -19 -10 -35 -22 -35 -26 0 -5 -7 -8 -15 -8 -8 0 -15 -4 -15 -10 0 -5 -11
-12 -25 -16 -14 -3 -25 -10 -25 -14 0 -4 -11 -11 -25 -14 -14 -4 -25 -11 -25
-16 0 -6 -11 -10 -24 -10 -13 0 -26 -3 -28 -7 -5 -13 -78 -43 -103 -43 -14 0
-25 -4 -25 -10 0 -5 -16 -12 -35 -16 -19 -3 -35 -10 -35 -15 0 -5 -22 -9 -50
-9 -27 0 -50 -4 -50 -9 0 -5 -29 -13 -65 -16 -36 -4 -65 -11 -65 -16 0 -5 -47
-9 -104 -9 -57 0 -106 -4 -108 -9 -3 -9 -209 -16 -361 -13 -56 1 -86 6 -82 12
4 6 -33 10 -104 10 -61 0 -111 4 -111 9 0 4 -33 11 -72 15 -40 4 -74 11 -76
16 -2 6 -25 10 -52 10 -26 0 -61 7 -76 15 -16 8 -39 15 -51 15 -12 0 -25 5
-28 10 -3 6 -21 10 -39 10 -17 0 -37 5 -42 10 -6 6 -24 13 -40 16 -16 3 -33 9
-38 15 -6 5 -21 9 -34 9 -13 0 -30 7 -38 15 -9 8 -26 15 -40 15 -13 0 -24 5
-24 10 0 6 -11 10 -25 10 -14 0 -28 7 -31 15 -4 8 -17 15 -30 15 -13 0 -24 5
-24 10 0 6 -11 10 -25 10 -14 0 -25 4 -25 10 0 5 -11 12 -25 16 -14 3 -25 10
-25 15 0 5 -11 9 -25 9 -14 0 -28 7 -31 15 -4 8 -15 15 -25 15 -10 0 -19 5
-19 10 0 6 -6 10 -14 10 -8 0 -21 6 -29 14 -8 8 -22 16 -33 18 -10 2 -28 13
-40 26 -12 12 -31 22 -43 22 -12 0 -21 6 -21 15 0 8 -7 15 -15 15 -8 0 -15 5
-15 10 0 6 -8 10 -18 10 -10 0 -25 8 -33 18 -27 29 -57 51 -63 45 -3 -4 -6 -1
-6 5 0 7 -5 12 -11 12 -7 0 -26 16 -45 35 -18 19 -37 35 -43 35 -15 0 -261
250 -261 265 0 3 -11 16 -25 29 -14 13 -25 26 -25 30 0 4 -6 14 -12 21 -30 33
-38 45 -38 55 0 5 -7 10 -15 10 -9 0 -15 10 -15 26 0 14 -4 23 -10 19 -5 -3
-10 1 -10 10 0 8 -7 18 -15 21 -8 4 -15 15 -15 25 0 10 -4 19 -9 19 -5 0 -11
8 -15 18 -5 17 -26 52 -36 62 -11 11 -40 73 -40 86 0 8 -4 14 -9 14 -5 0 -12
14 -16 30 -4 17 -11 30 -16 30 -5 0 -9 9 -9 21 0 11 -7 27 -15 35 -8 9 -15 26
-15 40 0 13 -4 24 -10 24 -5 0 -10 12 -10 26 0 14 -7 32 -15 40 -8 9 -15 26
-15 40 0 13 -4 24 -10 24 -5 0 -10 18 -10 40 0 22 -4 40 -9 40 -5 0 -13 9 -16
20 -6 18 -15 20 -106 20 l-99 0 0 -625 c0 -410 -3 -625 -10 -625 -7 0 -10
-170 -10 -490 0 -429 -2 -490 -15 -490 -8 0 -15 7 -15 15 0 8 -5 15 -11 15
-11 0 -39 25 -39 35 0 4 -12 20 -27 35 -39 41 -53 58 -53 66 0 3 -22 28 -50
55 -27 27 -50 54 -50 59 0 6 -11 21 -25 34 -14 13 -25 28 -25 35 0 6 -5 11
-11 11 -11 0 -39 24 -39 34 0 3 -12 19 -27 35 -40 43 -53 59 -53 66 0 4 -16
21 -35 39 -19 19 -35 38 -35 45 0 6 -7 11 -15 11 -8 0 -15 5 -15 11 0 6 -6 17
-12 24 -30 33 -38 45 -38 55 0 5 -5 10 -11 10 -11 0 -39 25 -39 35 0 4 -12 20
-27 35 -39 41 -53 58 -53 65 0 4 -16 21 -35 39 -19 19 -35 38 -35 45 0 6 -7
11 -15 11 -8 0 -15 5 -15 10 0 6 -11 23 -25 38 -14 15 -25 32 -25 39 0 7 -5
13 -11 13 -11 0 -39 25 -39 35 0 4 -18 24 -40 46 -22 22 -40 44 -40 50 0 6
-16 25 -35 43 -19 19 -35 38 -35 45 0 6 -7 11 -15 11 -8 0 -15 4 -15 10 0 11
-30 48 -72 92 -16 15 -28 30 -28 33 0 4 -18 24 -40 46 -22 22 -40 44 -40 50 0
14 -26 39 -39 39 -6 0 -11 7 -11 15 0 8 -4 15 -10 15 -5 0 -10 7 -10 15 0 8
-5 15 -11 15 -11 0 -39 25 -39 35 0 7 -14 24 -52 65 -16 15 -28 31 -28 35 0 4
-18 24 -40 46 -22 22 -40 44 -40 48 0 5 -27 36 -60 70 -33 34 -60 64 -60 67 0
6 -16 25 -52 64 -16 15 -28 33 -28 39 0 6 -7 11 -15 11 -8 0 -15 3 -15 8 0 4
-16 25 -35 47 -19 22 -35 43 -35 48 0 4 -22 30 -50 57 -27 27 -50 52 -50 55 0
7 -15 25 -52 65 -16 15 -28 31 -28 34 0 4 -22 29 -50 56 -27 27 -50 57 -50 65
0 8 -7 15 -15 15 -8 0 -15 5 -15 11 0 6 -16 25 -35 43 -19 19 -35 36 -35 40 0
6 -36 49 -67 82 -7 7 -13 17 -13 23 0 6 -7 11 -16 11 -8 0 -12 5 -9 10 3 6 -1
10 -9 10 -9 0 -16 5 -16 10 0 6 -11 23 -25 38 -14 15 -25 30 -25 34 0 5 -22
30 -50 57 -27 27 -50 52 -50 56 0 3 -12 20 -27 35 -39 41 -53 58 -53 65 0 10
-28 35 -39 35 -6 0 -11 5 -11 11 0 7 -11 22 -25 35 -14 13 -25 30 -25 39 0 9
-5 13 -10 10 -6 -3 -13 2 -17 12 -4 10 -22 32 -40 49 -18 17 -33 34 -33 38 0
4 -12 21 -27 37 -16 16 -38 41 -50 54 -13 13 -23 29 -23 35 0 5 -7 10 -15 10
-8 0 -15 5 -15 11 0 7 -16 26 -34 44 -19 18 -33 35 -30 37 2 3 -10 20 -28 39
-18 19 -32 37 -30 42 1 4 -5 7 -13 7 -8 0 -15 5 -15 11 0 14 -25 39 -39 39 -6
0 -11 7 -11 15 0 8 -11 25 -25 39 -14 14 -25 30 -25 36 0 5 -7 10 -15 10 -8 0
-15 6 -15 13 0 7 -11 21 -25 31 -14 10 -25 23 -25 28 0 11 -12 26 -62 78 -21
21 -38 41 -38 45 0 10 -28 35 -39 35 -6 0 -11 5 -11 11 0 39 3 39 -789 39
l-761 0 0 -75 0 -75 140 0 c77 0 140 -4 140 -9 0 -4 21 -11 47 -14 26 -3 49
-10 51 -16 2 -6 21 -11 43 -11 21 0 39 -4 39 -9 0 -5 16 -12 35 -15 19 -4 35
-11 35 -16 0 -6 9 -10 19 -10 21 0 84 -30 89 -42 2 -5 12 -8 23 -8 11 0 22 -7
25 -15 4 -8 15 -15 25 -15 10 0 19 -4 19 -10 0 -5 7 -10 15 -10 8 0 15 -7 15
-15 0 -8 5 -15 11 -15 7 0 22 -11 35 -25 13 -14 30 -25 39 -25 8 0 15 -5 15
-11 0 -11 24 -39 34 -39 11 0 46 -40 46 -52 0 -6 3 -9 6 -5 3 3 21 -13 38 -37
18 -23 50 -59 72 -80 l39 -38 3 -643 2 -644 -27 -25 c-15 -14 -36 -26 -46 -26
-10 0 -16 -4 -13 -9 4 -5 -7 -12 -24 -16 -16 -4 -32 -11 -35 -16 -4 -5 -20 -9
-36 -9 -17 0 -28 -4 -25 -9 3 -5 -14 -12 -39 -15 -25 -4 -45 -11 -45 -17 0 -5
-59 -9 -140 -9 -79 0 -140 4 -140 9 0 5 -29 13 -65 16 -36 4 -65 11 -65 16 0
5 -20 9 -45 9 -25 0 -45 4 -45 9 0 6 -20 13 -45 17 -25 3 -42 10 -39 15 3 5
-12 9 -33 9 -21 1 -49 7 -63 15 -14 8 -37 14 -52 15 -16 0 -28 5 -28 10 0 6
-17 10 -37 10 -21 0 -47 7 -57 15 -11 8 -35 15 -53 15 -18 0 -33 5 -33 10 0 6
-15 10 -32 10 -18 0 -46 7 -62 15 -15 8 -46 15 -67 15 -22 0 -39 4 -39 9 0 4
-28 11 -62 15 -35 3 -64 11 -66 16 -2 6 -35 10 -73 10 -38 0 -69 4 -69 9 0 5
-38 12 -85 16 -47 4 -85 11 -85 15 0 12 -237 21 -530 21 -302 0 -550 -10 -550
-21 0 -5 -40 -12 -90 -16 -49 -3 -90 -10 -90 -15 0 -5 -35 -9 -77 -9 -46 0
-73 -4 -65 -9 14 -9 -38 -21 -90 -21 -16 0 -28 -4 -28 -10 0 -5 -21 -10 -46
-10 -27 0 -51 -6 -60 -15 -9 -8 -33 -15 -55 -15 -21 0 -39 -4 -39 -10 0 -5
-13 -10 -29 -10 -16 0 -36 -7 -45 -15 -8 -8 -28 -15 -45 -15 -17 0 -31 -4 -31
-10 0 -5 -10 -10 -22 -10 -13 0 -32 -7 -42 -15 -11 -8 -30 -15 -43 -15 -13 0
-23 -4 -23 -9 0 -5 -11 -12 -25 -15 -14 -4 -25 -11 -25 -16 0 -6 -13 -10 -30
-10 -16 0 -30 -4 -30 -10 0 -5 -9 -10 -19 -10 -11 0 -26 -7 -35 -15 -8 -8 -22
-15 -30 -15 -9 0 -16 -4 -16 -10 0 -5 -11 -12 -25 -16 -14 -3 -25 -10 -25 -15
0 -5 -11 -9 -25 -9 -14 0 -25 -4 -25 -10 0 -5 -11 -12 -25 -16 -14 -3 -25 -10
-25 -15 0 -5 -6 -9 -13 -9 -7 0 -24 -11 -39 -25 -15 -14 -34 -25 -43 -25 -9 0
-18 -7 -21 -15 -4 -8 -12 -15 -20 -15 -8 0 -14 -4 -14 -10 0 -5 -6 -10 -13
-10 -7 0 -24 -11 -39 -25 -15 -14 -32 -25 -38 -25 -5 0 -10 -7 -10 -15 0 -8
-7 -15 -15 -15 -9 0 -26 -11 -39 -25 -13 -14 -27 -25 -31 -25 -8 0 -245 -237
-245 -246 0 -3 -6 -12 -12 -19 -30 -33 -38 -45 -38 -54 0 -5 -4 -11 -8 -13
-13 -5 -122 -186 -122 -202 0 -8 -4 -18 -10 -21 -5 -3 -10 -14 -10 -24 0 -10
-7 -24 -15 -31 -8 -7 -15 -28 -15 -46 0 -19 -4 -34 -9 -34 -5 0 -12 -22 -16
-50 -4 -27 -11 -50 -16 -50 -5 0 -9 -45 -9 -100 0 -60 -4 -100 -10 -100 -6 0
-10 -27 -10 -60 0 -33 4 -60 10 -60 6 0 10 -38 10 -95 0 -54 4 -95 10 -95 5 0
12 -22 16 -50 4 -27 10 -50 15 -50 5 0 9 -16 9 -35 0 -19 4 -35 10 -35 5 0 12
-16 16 -35 3 -19 10 -35 15 -35 5 0 9 -8 9 -19 0 -10 7 -24 15 -31 8 -7 15
-21 15 -31 0 -11 3 -19 8 -19 7 0 25 -30 38 -62 3 -10 10 -18 15 -18 5 0 9 -7
9 -15 0 -8 4 -15 9 -15 5 0 13 -10 17 -22 4 -12 23 -39 43 -60 43 -45 61 -65
61 -72 0 -11 140 -145 169 -162 17 -10 31 -22 31 -26 0 -4 7 -8 15 -8 8 0 15
-7 15 -15 0 -8 5 -15 11 -15 6 0 17 -6 24 -12 33 -30 45 -38 55 -38 5 0 10 -4
10 -9 0 -5 11 -12 25 -15 14 -4 25 -11 25 -16 0 -6 7 -10 15 -10 8 0 15 -4 15
-10 0 -5 11 -12 25 -16 14 -3 25 -10 25 -15 0 -5 5 -9 11 -9 6 0 17 -6 24 -12
36 -32 45 -38 64 -38 10 0 21 -7 25 -15 3 -8 15 -15 26 -15 11 0 20 -4 20 -10
0 -5 6 -10 14 -10 7 0 19 -7 26 -15 7 -8 21 -15 31 -15 11 0 19 -4 19 -10 0
-5 9 -10 19 -10 10 0 21 -7 25 -15 3 -8 17 -15 31 -15 14 0 25 -4 25 -10 0 -5
11 -12 25 -16 14 -3 25 -10 25 -15 0 -5 9 -9 21 -9 11 0 27 -7 36 -15 8 -8 18
-13 23 -10 4 3 13 -2 20 -10 7 -8 23 -15 35 -15 12 0 28 -7 35 -15 7 -8 21
-15 31 -15 11 0 19 -4 19 -10 0 -5 10 -10 23 -10 12 0 31 -7 41 -15 11 -8 28
-15 38 -15 10 0 18 -4 18 -10 0 -5 9 -10 19 -10 11 0 26 -7 35 -15 8 -8 24
-15 35 -15 12 0 21 -4 21 -10 0 -5 10 -10 23 -10 13 0 32 -7 43 -15 10 -8 29
-15 42 -15 12 0 22 -4 22 -10 0 -5 11 -10 24 -10 14 0 31 -7 40 -15 8 -8 26
-15 40 -15 14 0 26 -4 26 -9 0 -5 16 -12 35 -15 19 -4 35 -11 35 -16 0 -6 16
-10 36 -10 19 0 33 -4 30 -9 -3 -5 10 -12 29 -15 19 -4 35 -11 35 -16 0 -6 15
-10 33 -10 17 0 41 -7 51 -15 11 -8 30 -15 44 -15 13 0 20 -4 17 -10 -3 -6 5
-10 18 -10 14 0 38 -7 53 -15 16 -8 37 -15 47 -15 9 0 17 -4 17 -10 0 -5 15
-10 34 -10 18 0 39 -7 46 -15 7 -8 25 -15 41 -15 16 0 29 -4 29 -9 0 -5 18
-11 40 -15 22 -3 40 -11 40 -16 0 -6 14 -10 30 -10 17 0 30 -4 30 -9 0 -5 16
-12 35 -15 19 -4 35 -11 35 -16 0 -6 15 -10 34 -10 19 0 36 -4 38 -10 2 -5 13
-11 26 -13 12 -2 28 -9 34 -15 7 -7 25 -12 40 -12 15 0 28 -4 28 -10 0 -5 11
-10 24 -10 14 0 31 -7 40 -15 8 -8 26 -15 40 -15 14 0 27 -4 31 -9 3 -5 19
-12 35 -16 17 -4 30 -11 30 -16 0 -5 10 -9 23 -9 13 0 32 -7 43 -15 10 -8 29
-15 42 -15 12 0 22 -4 22 -10 0 -5 9 -10 21 -10 11 0 27 -7 35 -15 9 -8 29
-15 45 -15 18 0 28 -4 24 -10 -3 -6 4 -10 18 -10 14 0 30 -7 37 -15 7 -8 21
-15 31 -15 11 0 19 -4 19 -10 0 -5 11 -10 24 -10 14 0 31 -7 40 -15 8 -8 19
-15 25 -15 6 0 11 -4 11 -10 0 -5 11 -10 25 -10 16 0 25 -6 25 -15 0 -9 9 -15
25 -15 14 0 25 -4 25 -10 0 -5 11 -12 25 -16 14 -3 25 -10 25 -15 0 -5 7 -9
15 -9 8 0 15 -3 15 -8 0 -4 16 -16 35 -26 19 -11 35 -22 35 -26 0 -5 11 -11
25 -14 14 -4 25 -11 25 -16 0 -6 7 -10 15 -10 8 0 15 -7 15 -15 0 -8 5 -15 10
-15 6 0 28 -17 49 -37 22 -21 51 -47 65 -57 14 -10 26 -27 26 -37 0 -11 5 -19
11 -19 13 0 39 -25 39 -38 0 -5 7 -15 15 -22 8 -7 15 -21 15 -31 0 -11 5 -19
10 -19 6 0 10 -11 10 -24 0 -14 7 -31 15 -40 21 -21 21 -262 0 -290 -8 -11
-15 -30 -15 -43 0 -13 -4 -23 -9 -23 -5 0 -12 -11 -15 -25 -4 -14 -11 -25 -16
-25 -6 0 -10 -7 -10 -15 0 -8 -4 -15 -10 -15 -5 0 -10 -6 -10 -14 0 -16 -113
-135 -132 -139 -7 -1 -22 -12 -34 -24 -12 -13 -26 -23 -33 -23 -6 0 -11 -4
-11 -10 0 -5 -11 -12 -25 -16 -14 -3 -23 -10 -20 -14 3 -4 -6 -11 -20 -14 -14
-4 -25 -11 -25 -16 0 -6 -9 -10 -19 -10 -11 0 -21 -3 -23 -7 -5 -12 -76 -43
-98 -43 -11 0 -20 -4 -20 -10 0 -5 -18 -13 -40 -16 -22 -4 -37 -10 -34 -15 3
-5 -16 -9 -41 -9 -27 0 -44 -4 -40 -9 3 -6 -21 -13 -55 -17 -33 -4 -60 -11
-60 -15 0 -5 -38 -9 -84 -9 -59 0 -86 -4 -88 -12 -4 -10 -65 -13 -261 -13
-191 0 -259 3 -269 13 -8 8 -43 12 -101 12 -48 0 -86 4 -83 9 3 5 -20 11 -51
13 -31 3 -59 10 -61 16 -2 7 -26 12 -58 12 -30 0 -54 4 -54 9 0 5 -20 12 -45
15 -25 4 -45 11 -45 17 0 5 -15 9 -34 9 -19 0 -37 4 -41 9 -3 5 -19 12 -35 16
-17 4 -30 11 -30 16 0 5 -16 9 -35 9 -19 0 -35 4 -35 10 0 5 -11 12 -25 16
-14 3 -25 10 -25 15 0 5 -11 9 -25 9 -14 0 -25 4 -25 9 0 5 -10 13 -22 16 -37
11 -87 35 -93 45 -3 6 -15 10 -26 10 -10 0 -19 5 -19 10 0 6 -9 10 -19 10 -10
0 -21 7 -25 15 -3 8 -15 15 -26 15 -11 0 -20 5 -20 10 0 6 -7 10 -15 10 -8 0
-15 7 -15 15 0 9 -9 15 -21 15 -11 0 -27 6 -34 13 -34 30 -45 37 -56 37 -6 0
-22 11 -35 25 -13 14 -30 25 -39 25 -8 0 -15 7 -15 15 0 8 -5 15 -11 15 -7 0
-27 16 -46 35 -19 19 -38 35 -44 35 -5 0 -38 29 -74 65 -35 36 -69 65 -75 65
-6 0 -9 4 -6 9 3 4 -8 19 -24 31 -17 13 -30 31 -30 41 0 11 -6 19 -13 19 -8 0
-20 11 -27 25 -7 14 -17 25 -22 25 -4 0 -8 6 -8 14 0 8 -7 16 -15 20 -8 3 -15
15 -15 26 0 11 -7 20 -15 20 -8 0 -15 7 -15 15 0 8 -4 15 -10 15 -5 0 -10 7
-10 15 0 8 -9 24 -20 35 -12 12 -18 25 -15 30 4 6 1 10 -4 10 -6 0 -11 7 -11
15 0 8 -4 15 -10 15 -5 0 -12 11 -16 25 -3 14 -10 25 -15 25 -5 0 -9 11 -9 24
0 13 -7 29 -15 36 -8 7 -15 23 -15 36 0 13 -4 24 -10 24 -5 0 -10 11 -10 24 0
13 -7 29 -15 36 -8 7 -15 28 -15 46 0 19 -4 34 -10 34 -5 0 -10 10 -10 23 0
12 -7 35 -15 51 -8 15 -15 37 -15 47 0 17 -9 19 -90 20 -49 1 -100 2 -112 2
l-23 1 -3 -212 c-1 -118 3 -279 9 -360 6 -81 13 -293 15 -472 3 -179 9 -338
14 -354 6 -16 10 -119 10 -230 0 -111 3 -211 6 -223 6 -22 12 -23 90 -23 66 0
84 3 84 14 0 8 8 29 17 48 31 61 33 68 33 87 0 10 7 24 15 31 8 7 15 21 15 31
0 11 3 19 8 19 4 0 16 16 26 35 11 20 30 38 43 41 13 4 23 10 23 15 0 5 5 9
11 9 6 0 17 7 25 15 9 8 31 15 50 15 21 0 33 4 29 10 -4 6 32 10 99 10 58 0
106 -4 106 -9 0 -4 26 -11 57 -14 32 -3 59 -11 61 -17 2 -5 24 -10 48 -10 24
0 44 -4 44 -9 0 -5 23 -12 50 -16 28 -4 50 -11 50 -16 0 -5 18 -9 40 -9 22 0
40 -4 40 -10 0 -5 16 -12 35 -16 19 -3 35 -10 35 -15 0 -5 18 -9 40 -9 22 0
40 -4 40 -10 0 -5 18 -13 40 -16 22 -4 40 -10 40 -15 0 -5 15 -9 33 -9 17 -1
43 -7 57 -15 14 -8 40 -14 58 -15 17 0 32 -4 32 -9 0 -4 21 -11 47 -14 26 -3
49 -10 51 -16 2 -6 26 -11 53 -11 27 0 49 -4 49 -9 0 -4 28 -11 61 -14 34 -3
66 -10 72 -16 6 -6 48 -11 95 -11 53 0 81 -4 77 -10 -4 -6 13 -10 43 -10 94 0
231 -13 226 -21 -3 -5 119 -9 271 -9 161 0 274 4 271 9 -3 5 54 12 129 16 74
4 135 11 135 16 0 5 38 9 84 9 55 0 86 4 88 12 2 6 30 13 61 16 31 2 57 8 57
13 0 5 17 9 39 9 21 0 52 7 67 15 16 8 41 15 57 15 15 0 27 5 27 10 0 6 15 10
33 10 18 0 42 7 53 15 10 8 29 15 42 15 12 0 22 5 22 10 0 6 10 10 23 10 13 0
32 7 43 15 10 8 29 15 42 15 12 0 22 5 22 12 0 6 3 9 6 5 8 -8 64 13 64 24 0
5 11 9 25 9 14 0 25 4 25 9 0 5 11 12 25 15 14 4 25 11 25 16 0 6 11 10 25 10
14 0 25 4 25 9 0 5 11 12 25 15 14 4 25 11 25 16 0 6 7 10 15 10 8 0 15 4 15
10 0 5 11 12 25 16 14 3 25 10 25 14 0 4 11 11 25 14 14 4 25 11 25 16 0 6 7
10 15 10 8 0 15 5 15 10 0 6 6 10 13 10 7 0 24 11 39 25 15 14 31 25 36 25 6
0 12 7 16 15 3 8 15 15 26 15 12 0 19 4 16 8 -5 8 28 42 40 42 10 0 214 210
214 220 0 6 7 10 15 10 8 0 15 5 15 11 0 6 6 17 13 24 29 33 37 45 37 55 0 5
4 10 10 10 5 0 12 11 16 25 3 14 10 25 15 25 5 0 9 9 9 20 0 10 6 23 13 27 8
4 22 29 32 56 10 26 22 47 26 47 5 0 9 11 9 25 0 14 5 25 10 25 6 0 10 13 10
29 0 16 7 36 15 45 9 9 15 33 15 60 0 25 4 46 8 46 8 0 24 158 25 235 0 73
-17 245 -25 245 -4 0 -8 19 -8 43 0 23 -7 51 -15 61 -8 11 -15 30 -15 43 0 13
-4 23 -10 23 -5 0 -10 11 -10 25 0 14 -7 28 -15 31 -8 4 -15 17 -15 29 0 13
-5 25 -10 27 -6 2 -12 13 -13 26 0 12 -7 22 -14 22 -7 0 -13 9 -13 20 0 12
-11 31 -25 44 -14 13 -25 29 -25 35 0 7 -11 22 -25 35 -14 13 -25 26 -25 30 0
8 -16 28 -52 67 -16 15 -28 31 -28 34 0 5 -110 115 -116 115 -4 0 -48 39 -89
78 -13 12 -29 22 -35 22 -5 0 -10 6 -10 14 0 7 -8 17 -17 20 -33 12 -63 33
-56 39 3 4 -1 7 -10 7 -9 0 -17 4 -17 9 0 5 -11 12 -25 15 -14 4 -25 11 -25
16 0 6 -7 10 -15 10 -8 0 -15 4 -15 10 0 5 -11 12 -25 16 -14 3 -25 10 -25 15
0 5 -7 9 -15 9 -8 0 -15 4 -15 9 0 5 -10 13 -22 17 -13 4 -25 9 -28 13 -8 10
-44 31 -62 37 -10 4 -18 10 -18 15 0 5 -9 9 -19 9 -10 0 -21 7 -25 15 -3 8
-14 15 -25 15 -11 0 -21 3 -23 8 -5 12 -68 42 -89 42 -10 0 -19 4 -19 9 0 5
-11 12 -25 15 -14 4 -25 11 -25 16 0 6 -11 10 -25 10 -14 0 -25 5 -25 10 0 6
-9 10 -20 10 -11 0 -23 7 -26 15 -4 8 -19 15 -34 15 -16 0 -31 4 -35 9 -3 5
-19 12 -35 16 -17 4 -28 11 -24 16 3 5 -7 9 -21 9 -15 0 -33 7 -41 15 -9 8
-24 15 -34 15 -10 0 -22 5 -25 10 -3 5 -17 10 -31 10 -13 0 -24 5 -24 10 0 6
-5 10 -11 10 -12 0 -66 22 -112 46 -16 8 -38 14 -48 14 -11 0 -17 5 -14 10 4
6 -6 10 -24 10 -16 0 -36 7 -45 15 -8 8 -28 15 -44 15 -17 0 -32 4 -34 10 -1
5 -14 11 -27 13 -14 2 -27 9 -29 15 -2 7 -19 12 -38 12 -19 0 -34 4 -34 10 0
5 -16 12 -35 16 -19 3 -35 10 -35 15 0 5 -13 9 -30 9 -16 0 -30 5 -30 10 0 6
-11 10 -24 10 -14 0 -31 7 -40 15 -8 8 -31 15 -50 15 -20 0 -36 4 -36 10 0 5
-16 12 -35 16 -19 3 -35 10 -35 15 0 5 -13 9 -30 9 -16 0 -30 4 -30 10 0 5
-18 13 -40 16 -22 4 -40 10 -40 15 0 5 -14 9 -30 9 -17 0 -33 6 -36 13 -2 7
-19 14 -37 15 -17 2 -33 7 -35 12 -2 6 -14 10 -26 10 -12 0 -31 7 -42 15 -10
8 -29 15 -41 15 -13 0 -23 4 -23 9 0 5 -18 11 -40 15 -22 3 -40 11 -40 16 0 6
-11 10 -25 10 -14 0 -25 4 -25 9 0 5 -18 11 -40 15 -23 4 -38 11 -35 16 4 6
-7 10 -24 10 -17 0 -31 4 -31 9 0 5 -16 12 -35 15 -19 4 -35 11 -35 16 0 6
-10 10 -22 10 -13 0 -32 7 -42 15 -11 8 -28 15 -37 15 -10 0 -19 4 -21 9 -1 5
-14 11 -28 13 -14 1 -31 9 -38 16 -7 6 -20 12 -28 12 -8 0 -14 5 -14 10 0 6
-11 10 -24 10 -13 0 -26 7 -30 15 -3 8 -15 15 -26 15 -11 0 -20 5 -20 10 0 6
-6 10 -14 10 -8 0 -21 6 -28 13 -21 19 -56 37 -73 37 -8 0 -15 7 -15 15 0 9
-9 15 -21 15 -12 0 -32 11 -45 25 -13 14 -32 25 -44 25 -11 0 -19 3 -18 8 2 4
-1 9 -7 12 -5 3 -22 17 -38 32 -15 16 -32 28 -38 28 -15 0 -169 160 -169 177
0 7 -7 16 -15 19 -8 4 -15 12 -15 20 0 8 -3 14 -8 14 -8 0 -24 29 -66 123 -24
53 -26 68 -26 200 1 109 4 147 15 161 8 11 15 30 15 43 0 13 5 23 10 23 6 0
10 9 10 19 0 11 11 32 25 47 14 15 25 35 25 45 0 11 7 19 15 19 8 0 15 5 15
11 0 14 25 39 39 39 6 0 11 5 11 11 0 14 25 39 39 39 6 0 11 5 11 11 0 14 25
39 39 39 6 0 11 4 11 10 0 5 11 12 25 16 14 3 22 10 19 15 -3 5 2 9 11 9 8 0
18 7 21 15 4 8 13 15 21 15 8 0 21 6 28 13 35 31 45 37 60 37 8 0 15 4 15 9 0
5 13 12 30 16 16 4 30 11 30 16 0 5 11 9 25 9 14 0 25 4 25 9 0 5 16 12 35 15
19 4 35 11 35 16 0 6 18 10 39 10 22 0 41 5 43 11 2 6 25 13 51 16 26 3 47 10
47 14 0 5 21 9 48 9 26 0 65 7 87 15 22 8 75 14 118 15 44 0 77 4 77 10 0 13
456 14 464 1 3 -4 54 -11 113 -13 68 -3 108 -9 111 -16 2 -8 29 -12 73 -12 38
0 69 -4 69 -9 0 -5 23 -11 52 -13 29 -3 54 -11 56 -17 2 -6 24 -11 48 -11 24
0 44 -4 44 -9 0 -6 20 -13 45 -17 25 -3 45 -10 45 -15 0 -5 16 -9 35 -9 19 0
35 -4 35 -9 0 -5 13 -12 30 -16 16 -4 30 -11 30 -16 0 -5 16 -9 35 -9 19 0 35
-4 35 -9 0 -5 13 -12 30 -16 16 -4 30 -11 30 -16 0 -5 11 -9 24 -9 13 0 29 -7
36 -15 7 -8 17 -15 23 -15 18 0 87 -33 87 -42 0 -4 11 -8 25 -8 14 0 25 -4 25
-9 0 -5 8 -11 18 -15 18 -6 54 -27 62 -37 3 -4 15 -9 28 -13 12 -4 22 -12 22
-17 0 -5 9 -9 19 -9 10 0 22 -7 25 -16 3 -8 10 -12 16 -9 6 3 13 -1 16 -9 3
-9 13 -16 21 -16 9 0 26 -12 39 -26 14 -14 33 -26 44 -27 11 -1 20 -7 20 -14
0 -7 6 -13 14 -13 8 0 16 -3 18 -8 2 -4 23 -23 48 -42 25 -19 52 -42 61 -52 9
-10 21 -18 28 -18 6 0 11 -7 11 -15 0 -8 5 -15 11 -15 14 0 39 -25 39 -39 0
-6 5 -11 11 -11 14 0 39 -25 39 -39 0 -6 5 -11 11 -11 14 0 39 -25 39 -39 0
-6 7 -11 15 -11 8 0 15 -5 15 -10 0 -6 11 -23 25 -38 14 -15 25 -32 25 -39 0
-7 7 -13 15 -13 8 0 15 -5 15 -11 0 -7 8 -19 19 -28 10 -9 21 -26 25 -38 4
-13 12 -23 17 -23 5 0 9 -5 9 -11 0 -6 6 -17 13 -24 29 -34 37 -45 37 -55 0
-6 6 -18 13 -25 31 -35 37 -45 37 -60 0 -9 7 -18 15 -21 8 -4 15 -15 15 -25 0
-10 5 -19 10 -19 6 0 10 -8 10 -19 0 -10 7 -24 15 -31 8 -7 15 -23 15 -37 0
-13 4 -22 9 -19 5 3 12 -10 15 -29 4 -19 11 -35 16 -35 6 0 10 -11 10 -25 0
-14 5 -25 10 -25 6 0 10 -8 10 -18 0 -10 7 -27 15 -38 8 -10 15 -31 15 -46 0
-16 4 -28 9 -28 5 0 12 -18 16 -40 4 -22 11 -40 16 -40 5 0 9 -16 9 -35 l0
-35 109 0 c90 0 110 3 115 16 3 9 6 384 6 835 0 500 4 819 9 819 5 0 13 -9 16
-20 3 -11 11 -20 16 -20 5 0 9 -7 9 -15 0 -8 7 -15 15 -15 8 0 15 -4 15 -10 0
-5 16 -27 35 -47 19 -20 35 -41 35 -45 0 -4 11 -18 25 -32 14 -14 25 -30 25
-36 0 -5 7 -10 15 -10 8 0 15 -5 15 -10 0 -6 11 -22 25 -36 14 -14 25 -31 25
-39 0 -8 5 -15 11 -15 12 0 39 -25 39 -36 0 -4 11 -17 25 -30 14 -13 25 -26
25 -29 0 -4 6 -13 13 -20 29 -33 37 -45 37 -55 0 -5 5 -10 11 -10 11 0 39 -24
39 -34 0 -3 8 -14 18 -24 29 -31 62 -72 62 -78 0 -3 16 -21 35 -41 19 -19 37
-44 40 -54 4 -11 11 -17 16 -14 5 4 9 1 9 -5 0 -6 11 -21 25 -34 14 -13 25
-26 25 -30 0 -4 12 -21 28 -36 38 -41 52 -58 52 -65 0 -4 16 -21 35 -39 19
-19 35 -36 35 -40 0 -8 13 -24 53 -66 15 -15 27 -31 27 -35 0 -10 28 -35 39
-35 10 0 16 -21 12 -43 -1 -5 3 -5 9 -2 7 4 14 -2 17 -14 3 -11 9 -18 14 -15
5 3 9 0 9 -6 0 -6 11 -21 25 -34 14 -13 25 -28 25 -35 0 -6 7 -11 15 -11 14 0
20 -12 16 -33 -1 -5 3 -6 9 -2 5 3 10 2 10 -4 0 -6 11 -21 25 -35 14 -14 25
-30 25 -36 0 -5 7 -10 15 -10 8 0 15 -5 15 -10 0 -6 11 -23 25 -38 14 -15 25
-32 25 -39 0 -7 7 -13 15 -13 8 0 15 -7 15 -15 0 -8 5 -15 10 -15 6 0 10 -7
10 -17 0 -9 3 -14 6 -10 7 7 44 -29 44 -43 0 -6 11 -21 25 -34 14 -13 25 -28
25 -35 0 -6 7 -11 15 -11 8 0 15 -5 15 -10 0 -6 11 -22 25 -36 14 -14 25 -31
25 -39 0 -8 7 -15 15 -15 8 0 15 -7 15 -16 0 -8 5 -12 10 -9 6 3 10 1 10 -6 0
-6 11 -22 25 -35 14 -13 25 -27 25 -31 0 -5 11 -20 25 -35 14 -15 25 -32 25
-38 0 -5 5 -10 11 -10 13 0 39 -25 39 -38 0 -6 7 -12 15 -16 8 -3 15 -13 15
-21 0 -9 4 -14 9 -10 5 3 12 -4 16 -15 3 -11 11 -20 16 -20 5 0 9 -5 9 -11 0
-7 11 -22 25 -35 14 -13 25 -28 25 -34 0 -6 5 -8 10 -5 6 3 10 0 10 -8 0 -8 7
-17 15 -21 8 -3 15 -10 15 -16 0 -6 11 -21 25 -34 14 -13 25 -28 25 -35 0 -6
7 -11 15 -11 8 0 15 -5 15 -10 0 -6 11 -22 25 -36 14 -14 25 -30 25 -36 0 -6
16 -25 35 -44 19 -18 35 -36 35 -39 0 -4 12 -20 28 -35 42 -45 52 -58 52 -70
0 -5 7 -10 15 -10 8 0 14 -4 13 -8 -2 -4 8 -20 22 -34 36 -39 50 -56 50 -63 0
-3 11 -16 25 -29 14 -13 25 -28 25 -35 0 -6 7 -11 15 -11 8 0 14 -3 13 -8 -2
-4 3 -14 10 -22 42 -49 62 -76 62 -82 0 -5 7 -8 15 -8 8 0 15 -5 15 -11 0 -7
11 -22 25 -35 14 -13 25 -30 25 -39 0 -8 7 -15 15 -15 8 0 15 -6 15 -13 0 -7
11 -21 25 -31 13 -10 22 -22 19 -27 -3 -5 2 -9 10 -9 9 0 16 -7 16 -15 0 -8
11 -25 25 -39 14 -14 25 -30 25 -36 0 -5 7 -10 15 -10 8 0 15 -5 15 -11 0 -6
12 -24 28 -39 15 -16 33 -36 40 -45 11 -13 127 -15 1012 -15 l1000 0 0 69 0
69 -63 11 c-35 6 -91 11 -125 11 -35 0 -62 4 -62 10 0 6 -18 10 -40 10 -27 0
-43 5 -46 15 -4 9 -19 15 -35 15 -16 0 -29 4 -29 9 0 5 -11 12 -25 15 -14 4
-25 11 -25 16 0 6 -5 10 -11 10 -7 0 -22 11 -35 25 -13 14 -26 25 -29 25 -3 0
-19 13 -37 30 -17 16 -35 30 -39 30 -5 0 -9 6 -9 14 0 7 -11 22 -25 32 -14 10
-25 24 -25 31 0 7 -7 13 -15 13 -8 0 -15 5 -15 11 0 6 -16 25 -35 43 -19 19
-35 37 -35 40 0 4 -6 14 -12 21 -30 33 -38 45 -38 55 0 5 -7 10 -15 10 -13 0
-15 76 -15 620 0 523 2 620 14 620 8 0 16 7 20 15 3 9 18 15 38 15 22 0 29 3
20 9 -10 6 -3 10 22 15 20 4 36 11 36 16 0 6 21 10 46 10 25 0 43 4 39 9 -3 5
20 13 52 17 70 8 237 -2 241 -16 2 -6 33 -10 68 -10 36 0 63 -4 60 -9 -3 -5
17 -11 44 -15 28 -4 50 -11 50 -16 0 -6 20 -10 45 -10 25 0 45 -4 45 -10 0 -5
18 -13 40 -16 22 -4 40 -10 40 -15 0 -5 17 -9 38 -9 20 -1 48 -7 62 -15 14 -8
35 -14 48 -15 12 0 22 -4 22 -10 0 -5 17 -10 39 -10 21 0 52 -7 67 -15 16 -8
44 -15 62 -15 17 0 32 -4 32 -10 0 -5 19 -10 43 -10 23 -1 53 -7 67 -15 14 -8
44 -14 68 -15 23 0 42 -4 42 -10 0 -5 24 -10 53 -10 28 0 65 -7 81 -15 18 -10
57 -15 107 -15 44 0 79 -4 79 -9 0 -5 74 -12 165 -16 91 -4 165 -11 165 -16 0
-12 363 -12 376 0 5 5 89 13 187 17 97 4 177 11 177 15 0 5 33 9 74 9 43 0 89
6 109 15 20 8 59 15 87 15 27 0 50 5 50 10 0 6 21 10 48 10 26 0 56 7 66 15
11 8 37 15 58 15 21 0 38 5 38 10 0 6 15 10 33 10 17 1 43 7 57 15 14 8 40 14
58 15 17 0 32 5 32 10 0 6 10 10 23 10 13 0 32 7 43 15 10 8 32 15 47 15 16 0
26 4 22 10 -3 6 5 10 19 10 13 0 31 7 40 15 8 8 24 15 36 15 12 0 28 7 36 15
9 8 26 15 40 15 13 0 24 5 24 10 0 6 11 10 25 10 16 0 25 6 25 15 0 9 9 15 25
15 14 0 25 5 25 10 0 6 9 10 19 10 10 0 21 7 25 15 3 8 12 15 21 15 8 0 15 5
15 10 0 6 11 10 25 10 16 0 25 6 25 15 0 9 9 15 25 15 14 0 25 5 25 10 0 6 7
10 15 10 8 0 15 4 15 10 0 5 11 12 25 16 14 3 22 10 19 15 -3 5 1 9 9 9 8 0
17 7 21 15 3 8 13 15 22 15 9 0 27 11 40 25 13 14 28 25 34 25 5 0 10 5 10 11
0 5 4 8 8 5 5 -3 15 4 22 15 8 10 20 19 27 19 7 0 13 7 13 15 0 8 5 15 11 15
6 0 26 16 45 35 18 19 37 35 41 35 5 0 14 9 21 20 7 12 17 18 22 15 6 -3 10 0
10 7 0 7 23 37 50 65 28 29 50 57 50 63 0 5 7 10 15 10 8 0 15 5 15 11 0 6 6
17 13 24 29 33 37 45 37 55 0 5 4 10 9 10 5 0 12 11 15 25 4 14 11 25 16 25 6
0 10 7 10 15 0 8 4 15 10 15 5 0 12 11 16 25 3 14 10 25 15 25 5 0 9 9 9 21 0
11 6 26 13 33 7 8 19 33 26 57 7 24 19 56 27 71 8 14 14 40 14 57 0 17 4 31 9
31 4 0 11 29 14 65 4 36 11 74 17 84 13 26 13 274 0 287 -6 6 -14 43 -17 82
-3 40 -10 72 -14 72 -5 0 -9 15 -9 33 0 17 -7 41 -15 51 -8 11 -15 30 -15 43
0 13 -4 23 -10 23 -5 0 -10 11 -10 24 0 13 -7 29 -15 36 -8 7 -15 21 -15 31 0
11 -4 19 -10 19 -5 0 -10 9 -10 20 0 11 -7 23 -15 26 -8 4 -15 15 -15 25 0 10
-4 19 -10 19 -5 0 -10 6 -10 14 0 8 -7 16 -15 20 -8 3 -15 12 -15 21 0 9 -11
26 -25 39 -14 13 -25 28 -25 35 0 6 -22 34 -50 61 -27 27 -50 54 -50 60 0 5
-5 10 -11 10 -6 0 -17 6 -25 14 -8 8 -14 19 -14 25 0 6 -4 11 -10 11 -15 0
-50 33 -44 42 3 4 0 8 -7 8 -6 0 -22 11 -35 25 -13 14 -28 25 -34 25 -6 0 -21
11 -34 25 -13 14 -28 25 -35 25 -6 0 -11 4 -11 10 0 5 -11 12 -25 16 -14 4
-23 9 -21 12 6 5 -26 27 -56 38 -10 3 -18 10 -18 15 0 5 -7 9 -15 9 -8 0 -15
4 -15 10 0 5 -11 12 -25 16 -14 3 -25 10 -25 14 0 4 -11 11 -25 14 -14 4 -25
11 -25 16 0 6 -9 10 -21 10 -11 0 -17 5 -14 10 3 6 -3 10 -15 10 -11 0 -23 7
-26 15 -4 8 -17 15 -30 15 -13 0 -24 4 -24 10 0 5 -11 12 -25 16 -14 3 -25 10
-25 15 0 5 -11 9 -25 9 -14 0 -25 4 -25 10 0 5 -11 12 -25 16 -14 3 -25 10
-25 15 0 5 -11 9 -25 9 -14 0 -25 4 -25 10 0 5 -11 12 -25 16 -14 3 -25 10
-25 15 0 5 -9 9 -21 9 -11 0 -27 7 -35 15 -9 8 -24 15 -35 15 -10 0 -19 5 -19
10 0 6 -8 10 -18 10 -10 0 -27 7 -38 15 -10 8 -29 15 -41 15 -13 0 -23 4 -23
9 0 5 -11 12 -25 15 -14 4 -25 11 -25 16 0 6 -14 10 -31 10 -16 0 -28 4 -25 9
3 5 -12 11 -34 15 -22 3 -40 11 -40 16 0 6 -11 10 -25 10 -14 0 -25 4 -25 9 0
5 -16 12 -35 15 -19 4 -35 11 -35 16 0 6 -13 10 -30 10 -16 0 -30 4 -30 10 0
5 -16 12 -35 16 -19 3 -35 10 -35 15 0 5 -13 9 -29 9 -16 0 -31 5 -33 10 -2 6
-17 13 -33 16 -17 3 -31 9 -33 15 -2 5 -16 9 -30 9 -15 0 -36 7 -46 15 -11 8
-30 15 -43 15 -13 0 -23 5 -23 10 0 6 -12 10 -26 10 -14 0 -32 7 -40 15 -9 8
-29 15 -45 15 -16 0 -29 5 -29 10 0 6 -10 10 -23 10 -13 0 -32 7 -43 15 -10 8
-34 15 -51 15 -18 0 -33 5 -33 10 0 6 -11 10 -25 10 -14 0 -28 7 -31 15 -4 9
-19 15 -40 15 -19 0 -34 5 -34 10 0 6 -11 10 -24 10 -14 0 -31 7 -40 15 -8 8
-28 15 -45 15 -16 0 -32 4 -36 9 -3 5 -19 12 -35 16 -17 4 -28 11 -24 16 3 5
-13 9 -35 9 -23 0 -41 4 -41 10 0 5 -16 12 -35 16 -19 3 -35 10 -35 15 0 5
-12 9 -26 9 -14 0 -32 7 -40 15 -9 8 -26 15 -40 15 -13 0 -24 5 -24 10 0 6
-10 10 -22 10 -13 0 -32 7 -42 15 -11 8 -30 15 -43 15 -13 0 -23 5 -23 10 0 6
-10 10 -22 10 -13 0 -32 7 -42 15 -11 8 -30 15 -43 15 -13 0 -23 5 -23 10 0 6
-9 10 -19 10 -11 0 -26 7 -35 15 -8 8 -26 15 -40 15 -14 0 -26 4 -26 9 0 5
-11 12 -25 15 -14 4 -25 11 -25 16 0 6 -13 10 -30 10 -16 0 -30 4 -30 10 0 5
-11 12 -25 16 -14 3 -25 10 -25 15 0 5 -9 9 -20 9 -11 0 -23 7 -26 15 -4 8
-10 13 -14 10 -5 -3 -15 2 -23 10 -9 8 -20 15 -26 15 -6 0 -11 4 -11 9 0 5
-11 12 -25 15 -14 4 -25 11 -25 16 0 6 -7 10 -15 10 -8 0 -15 4 -15 9 0 5 -10
13 -22 17 -13 4 -33 17 -45 30 -12 13 -27 24 -33 24 -6 0 -21 11 -34 25 -13
14 -26 25 -30 25 -11 0 -36 27 -36 39 0 6 -5 11 -11 11 -14 0 -39 25 -39 39 0
6 -7 11 -15 11 -8 0 -15 5 -15 10 0 6 -11 22 -25 36 -14 14 -25 31 -25 39 0 7
-3 15 -7 17 -15 6 -43 70 -43 98 0 16 -5 30 -11 32 -8 3 -11 41 -11 113 0 72
3 110 11 113 6 2 11 19 11 38 0 19 4 34 9 34 5 0 12 14 16 30 4 17 11 30 16
30 5 0 9 7 9 15 0 9 11 26 25 39 14 13 25 27 25 31 0 10 106 115 115 115 4 0
18 11 31 25 13 14 30 25 37 25 8 0 18 7 21 16 3 8 10 12 16 9 5 -3 10 1 10 9
0 10 9 16 25 16 14 0 25 3 25 8 0 11 59 42 80 42 10 0 20 7 24 15 3 8 17 15
31 15 15 0 24 4 20 10 -4 6 8 10 30 10 20 0 43 7 51 15 9 8 29 15 45 15 16 0
29 5 29 10 0 6 20 10 44 10 24 0 60 7 79 15 20 8 66 15 102 15 37 0 65 4 65
10 0 6 97 10 271 10 158 0 268 -4 265 -9 -4 -5 37 -11 91 -13 66 -2 98 -7 101
-15 2 -8 23 -13 57 -13 30 0 56 -4 59 -9 3 -4 27 -11 53 -14 26 -3 49 -10 51
-16 2 -6 21 -11 43 -11 21 0 39 -4 39 -9 0 -5 18 -11 40 -15 22 -3 40 -11 40
-16 0 -6 16 -10 35 -10 19 0 35 -4 35 -9 0 -5 14 -12 30 -16 17 -4 30 -11 30
-16 0 -5 14 -9 30 -9 17 0 30 -4 30 -9 0 -5 14 -12 30 -16 17 -4 30 -11 30
-16 0 -5 11 -9 25 -9 14 0 25 -6 25 -13 0 -7 10 -13 22 -14 11 -1 24 -6 27
-11 3 -5 16 -12 29 -16 12 -4 22 -12 22 -17 0 -5 9 -9 20 -9 11 0 20 -4 20
-10 0 -5 9 -10 20 -10 11 0 20 -7 20 -15 0 -9 9 -15 21 -15 12 0 32 -11 45
-25 13 -14 30 -25 39 -25 8 0 15 -4 15 -10 0 -5 7 -10 15 -10 8 0 15 -7 15
-15 0 -9 9 -15 25 -15 16 0 25 -6 25 -16 0 -8 5 -12 10 -9 6 3 13 0 16 -8 3
-8 21 -23 40 -33 19 -10 34 -22 34 -26 0 -5 7 -8 15 -8 8 0 15 -5 15 -11 0
-14 25 -39 39 -39 6 0 11 -7 11 -15 0 -8 7 -15 16 -15 8 0 12 -4 9 -10 -3 -5
1 -10 9 -10 9 0 16 -7 16 -15 0 -8 5 -15 11 -15 14 0 39 -25 39 -39 0 -6 5
-11 11 -11 11 0 39 -24 39 -34 0 -3 12 -19 28 -35 43 -47 52 -59 52 -71 0 -5
5 -10 10 -10 6 0 10 -6 10 -14 0 -8 7 -16 15 -20 8 -3 15 -12 15 -20 0 -7 7
-17 16 -20 8 -3 12 -10 9 -16 -3 -6 1 -13 9 -16 9 -3 16 -15 16 -25 0 -10 4
-19 9 -19 5 0 12 -11 15 -25 4 -14 11 -25 16 -25 6 0 10 -11 10 -24 0 -13 7
-26 15 -30 8 -3 15 -15 15 -26 0 -11 5 -20 10 -20 6 0 10 -11 10 -24 0 -13 7
-29 15 -36 8 -7 15 -21 15 -31 0 -10 5 -21 10 -24 6 -3 10 -18 10 -33 0 -15 7
-36 15 -46 8 -11 15 -32 15 -48 0 -15 5 -28 10 -28 6 0 10 -15 10 -34 0 -51
14 -57 136 -54 l109 3 -3 95 c-1 52 -5 252 -8 445 -3 192 -9 352 -13 355 -5 3
-14 174 -20 380 -6 206 -14 423 -17 483 l-5 107 -84 0 c-87 0 -95 -4 -95 -51
0 -11 -4 -17 -10 -14 -6 4 -10 -5 -10 -20 0 -15 -7 -33 -15 -41 -8 -9 -15 -24
-15 -35 0 -10 -4 -19 -10 -19 -5 0 -10 -9 -10 -20 0 -11 -7 -23 -15 -26 -8 -4
-15 -12 -15 -20 0 -18 -52 -70 -79 -79 -11 -3 -21 -11 -21 -16 0 -5 -20 -9
-45 -9 -25 0 -45 -4 -45 -10 0 -6 -38 -10 -95 -10 -57 0 -95 4 -95 10 0 6 -24
10 -54 10 -29 0 -67 7 -82 15 -16 8 -44 15 -61 15 -18 0 -33 5 -33 10 0 6 -15
10 -32 10 -18 0 -42 7 -52 15 -11 8 -32 15 -48 15 -15 0 -28 5 -28 10 0 6 -14
10 -31 10 -17 0 -37 7 -45 15 -9 8 -29 15 -45 15 -16 0 -29 5 -29 10 0 6 -15
10 -33 10 -18 0 -42 7 -53 15 -10 8 -34 15 -51 15 -18 0 -33 4 -33 9 0 4 -21
11 -47 14 -26 3 -49 10 -51 16 -2 6 -24 11 -48 11 -24 0 -44 4 -44 9 0 4 -27
11 -60 15 -34 4 -58 11 -55 17 4 5 -21 9 -59 9 -36 0 -66 4 -66 9 0 5 -36 12
-80 16 -44 4 -80 11 -80 16 0 5 -56 9 -124 9 -73 0 -127 4 -131 10 -4 6 -113
10 -295 10 -182 0 -291 -4 -295 -10z"/>
<path d="M2180 4748 c-81 -209 -139 -420 -154 -558 l-6 -55 53 -42 53 -42 32
-203 c17 -112 68 -430 112 -708 44 -277 87 -556 95 -618 19 -143 20 -399 1
-467 -59 -222 -281 -383 -592 -430 -377 -57 -634 44 -706 279 -18 61 -20 84
-15 210 9 234 71 422 236 722 l51 92 -38 25 c-20 15 -49 35 -63 46 l-26 21
-76 -138 c-192 -346 -275 -576 -308 -854 -16 -139 -7 -475 16 -553 52 -183
178 -338 335 -413 104 -50 184 -70 316 -78 228 -15 478 49 665 169 199 128
345 292 416 469 48 118 55 199 50 572 -5 382 6 287 -132 1156 -36 228 -69 441
-72 472 -6 61 -1 68 37 48 16 -9 23 3 63 113 46 125 70 227 82 353 l7 70 -133
87 c-155 99 -172 120 -179 220 -5 67 -5 68 -47 92 l-41 25 -32 -82z"/>
<path d="M6781 4599 c-55 -126 -101 -233 -101 -237 0 -4 37 -28 83 -54 45 -27
130 -77 189 -112 l107 -64 101 237 101 236 -22 15 c-12 8 -79 48 -148 88 -69
40 -144 84 -167 97 l-41 24 -102 -230z"/>
<path d="M2895 4623 c-42 -106 -205 -537 -205 -544 0 -5 20 -35 44 -67 55 -73
81 -121 102 -197 15 -52 18 -140 25 -650 4 -326 12 -630 18 -680 46 -372 122
-540 279 -617 l67 -33 395 0 c355 0 401 2 455 18 105 32 188 93 261 190 26 34
50 66 54 70 4 4 53 -15 108 -43 199 -99 384 -164 602 -211 116 -25 156 -29
290 -29 193 0 265 12 359 57 87 42 186 135 246 231 l39 63 28 -71 c53 -133
117 -215 198 -254 42 -19 64 -21 290 -24 374 -5 472 13 612 113 26 19 53 35
58 35 6 0 36 -13 68 -29 137 -68 296 -106 499 -118 l113 -6 0 444 c-1 469 -9
650 -35 762 -19 83 -64 227 -71 227 -13 0 -215 -325 -224 -362 -15 -55 -8 -97
40 -225 41 -108 62 -213 43 -213 -30 0 -210 52 -277 80 l-78 33 5 51 c22 197
29 339 21 421 l-9 90 -61 -55 c-95 -86 -110 -113 -118 -222 -18 -257 -97 -351
-326 -388 -36 -5 -152 -10 -259 -10 -220 0 -250 8 -312 78 -67 76 -74 105 -71
317 1 105 5 206 8 227 l5 36 -43 7 c-24 3 -55 8 -69 11 l-26 5 -6 -98 c-7
-122 -26 -195 -78 -301 -67 -138 -184 -232 -330 -267 -37 -8 -112 -15 -176
-15 l-112 0 -7 58 c-20 167 -105 426 -205 627 -59 119 -108 188 -152 216 -69
43 -167 -2 -303 -136 -130 -129 -215 -261 -314 -488 -50 -115 -107 -185 -183
-222 -97 -47 -177 -55 -545 -55 -389 0 -380 -2 -426 92 -61 126 -75 290 -86
973 -9 589 -13 630 -66 805 -26 84 -113 273 -138 298 -11 11 -15 10 -21 -5z
m1864 -1787 c56 -29 162 -170 197 -262 16 -42 16 -46 1 -62 -22 -21 -59 -12
-239 65 -101 42 -138 63 -138 75 0 33 42 130 72 164 33 37 62 43 107 20z"/>
<path d="M11026 4631 c-4 -5 -53 -132 -111 -282 l-104 -272 49 -66 c62 -82 79
-116 103 -211 18 -68 20 -128 27 -680 8 -636 14 -723 60 -904 40 -157 113
-276 202 -333 84 -52 94 -53 885 -53 l733 0 0 423 c0 626 -23 805 -131 1019
-34 67 -119 198 -128 198 -6 0 -162 -516 -161 -532 0 -4 27 -45 60 -91 72
-101 122 -206 144 -304 9 -40 16 -75 16 -78 0 -3 -285 -4 -634 -3 l-635 3 -30
29 c-92 88 -121 323 -121 971 0 635 -24 807 -146 1049 -54 107 -70 131 -78
117z"/>
<path d="M12373 4562 c-46 -101 -89 -192 -152 -326 -29 -60 -50 -113 -49 -118
2 -5 108 -72 236 -148 l233 -139 28 62 c16 34 70 149 120 256 50 107 91 197
91 201 0 4 -106 71 -235 148 l-236 141 -36 -77z"/>
<path d="M10146 4381 c-43 -85 -217 -464 -214 -467 2 -1 109 -66 238 -143
l235 -140 17 37 c9 20 64 138 122 261 96 204 104 226 88 236 -38 26 -449 265
-455 265 -4 0 -18 -22 -31 -49z"/>
<path d="M7204 4109 c-43 -94 -84 -173 -90 -175 -9 -4 -101 47 -265 145 l-36
21 -102 -222 c-56 -123 -102 -227 -103 -232 0 -5 80 -62 179 -127 l178 -118
90 186 90 185 145 -95 c79 -53 145 -95 146 -94 11 16 214 456 214 464 0 11
-339 233 -357 233 -5 0 -45 -77 -89 -171z"/>
<path d="M16467 3509 c-104 -25 -204 -96 -289 -208 -46 -60 -186 -326 -177
-335 2 -2 33 2 69 10 170 36 359 0 514 -98 122 -77 315 -248 418 -370 l40 -48
-655 0 -654 0 -6 118 c-14 265 -93 504 -229 687 -49 66 -52 69 -59 45 -4 -14
-31 -152 -59 -308 l-52 -282 51 -68 c54 -71 136 -230 167 -322 26 -76 25 -201
0 -260 -58 -133 -178 -283 -398 -495 -274 -265 -410 -345 -589 -345 -79 0
-197 29 -271 66 -57 29 -184 112 -232 151 l-28 24 -43 -73 -42 -72 71 -56
c422 -333 651 -453 861 -454 81 -1 97 2 155 30 306 146 700 673 700 935 l0 49
1203 0 c1307 0 1275 -1 1392 56 76 38 178 133 236 221 l47 72 31 -76 c58 -137
105 -199 186 -241 l50 -27 310 0 c294 0 314 1 382 23 41 12 104 44 148 73 l76
51 68 -31 c160 -74 298 -106 498 -118 l115 -6 -5 554 c-3 481 -6 564 -21 629
-22 91 -65 232 -75 243 -5 4 -57 -68 -117 -160 l-109 -168 0 -75 c0 -62 6 -91
36 -170 38 -97 65 -207 55 -217 -10 -10 -212 45 -291 79 l-77 33 6 40 c25 168
36 515 17 515 -5 0 -39 -28 -76 -62 -80 -74 -104 -120 -105 -203 0 -71 -22
-181 -44 -224 -41 -78 -107 -128 -211 -159 -68 -20 -481 -29 -539 -12 -48 14
-118 78 -149 135 -21 38 -22 52 -21 277 l1 237 -46 6 c-25 4 -53 9 -62 11 -14
4 -17 -9 -23 -78 -23 -269 -132 -463 -306 -545 -88 -42 -150 -53 -288 -53
-103 0 -127 4 -201 30 -148 51 -180 80 -478 440 -156 188 -341 381 -437 454
-148 114 -302 157 -439 125z"/>
<path d="M10460 3318 c0 -7 -25 -145 -54 -306 l-54 -293 55 -72 c101 -134 187
-345 187 -463 0 -108 -80 -245 -258 -443 -174 -193 -406 -395 -517 -451 -92
-47 -170 -63 -269 -57 -140 8 -257 58 -427 183 l-71 53 -42 -69 c-23 -38 -39
-73 -36 -79 10 -15 301 -232 418 -310 122 -82 265 -153 359 -178 35 -9 102
-17 150 -17 79 -1 91 2 160 36 103 51 186 117 309 244 118 123 211 249 286
390 97 181 94 157 94 692 0 493 -4 555 -50 722 -26 93 -125 296 -182 372 -43
58 -58 69 -58 46z"/>
</g>
</svg>
